<svg width="32" height="32" viewBox="0 0 32 32" fill="none" xmlns="http://www.w3.org/2000/svg">
<circle cx="16" cy="16" r="16" fill="#202020"/>
<path d="M19.3996 12.8086V18.975C19.3996 22.0264 16.926 24.5 13.8746 24.5C10.8232 24.5 8.34961 22.0264 8.34961 18.975C8.34961 15.9236 10.8232 13.45 13.8746 13.45C14.3135 13.45 14.7403 13.5012 15.1496 13.5978V16.2863C14.7632 16.1027 14.3309 16 13.8746 16C12.2316 16 10.8996 17.332 10.8996 18.975C10.8996 20.6181 12.2316 21.95 13.8746 21.95C15.5177 21.95 16.8496 20.6181 16.8496 18.975V7.5H19.3996C19.3996 9.84721 21.3024 11.75 23.6496 11.75V14.3C22.0415 14.3 20.5638 13.7418 19.3996 12.8086Z" fill="white"/>
</svg>
