<svg width="32" height="32" viewBox="0 0 32 32" fill="none" xmlns="http://www.w3.org/2000/svg">
<g clip-path="url(#clip0_3716_11095)">
<path d="M21.5846 11.0125C21.5802 11.004 21.5728 10.9974 21.5638 10.9938C20.5241 10.5252 19.4268 10.1911 18.2996 9.99984C18.2894 9.99797 18.2788 9.99932 18.2694 10.0037C18.26 10.0081 18.2522 10.0153 18.2472 10.0242C18.0978 10.2905 17.9621 10.5641 17.8408 10.8439C16.6257 10.6627 15.3897 10.6627 14.1746 10.8439C14.0525 10.5634 13.9147 10.2898 13.7618 10.0242C13.7566 10.0154 13.7488 10.0084 13.7394 10.0041C13.7301 9.99974 13.7196 9.99826 13.7094 9.99984C12.582 10.1907 11.4847 10.5249 10.4451 10.9938C10.4362 10.9975 10.4287 11.0038 10.4237 11.0119C8.34468 14.0611 7.77517 17.0354 8.05455 19.9728C8.05534 19.98 8.05759 19.987 8.06117 19.9933C8.06476 19.9997 8.0696 20.0052 8.07541 20.0097C9.28598 20.89 10.64 21.562 12.0797 21.9969C12.0899 21.9999 12.1007 21.9997 12.1108 21.9965C12.1208 21.9933 12.1296 21.9871 12.136 21.9788C12.4452 21.5655 12.7192 21.128 12.9552 20.6705C12.9584 20.6642 12.9603 20.6573 12.9606 20.6503C12.961 20.6433 12.9598 20.6363 12.9572 20.6297C12.9545 20.6232 12.9505 20.6172 12.9454 20.6123C12.9403 20.6074 12.9341 20.6036 12.9274 20.6012C12.4953 20.4388 12.0771 20.2431 11.6765 20.0158C11.6692 20.0116 11.6631 20.0057 11.6587 19.9987C11.6543 19.9916 11.6517 19.9836 11.6512 19.9753C11.6507 19.967 11.6523 19.9587 11.6558 19.9512C11.6593 19.9437 11.6647 19.9371 11.6714 19.9321C11.7557 19.8703 11.8385 19.8065 11.9198 19.7409C11.927 19.7352 11.9356 19.7315 11.9448 19.7302C11.9539 19.729 11.9632 19.7304 11.9717 19.7341C14.5961 20.9104 17.4374 20.9104 20.0308 19.7341C20.0392 19.7301 20.0486 19.7286 20.0579 19.7297C20.0672 19.7308 20.076 19.7345 20.0832 19.7403C20.1646 19.8062 20.2477 19.8702 20.3323 19.9321C20.3391 19.9371 20.3445 19.9436 20.3481 19.9511C20.3516 19.9586 20.3533 19.9668 20.3528 19.9751C20.3524 19.9834 20.3499 19.9914 20.3455 19.9985C20.3412 20.0056 20.3351 20.0116 20.3279 20.0158C19.9282 20.245 19.5095 20.4406 19.0763 20.6006C19.0696 20.6031 19.0635 20.607 19.0584 20.6119C19.0533 20.6169 19.0493 20.6229 19.0468 20.6295C19.0442 20.6361 19.0431 20.6432 19.0435 20.6503C19.0439 20.6573 19.0458 20.6642 19.0491 20.6705C19.289 21.1254 19.5626 21.5624 19.8676 21.978C19.8738 21.9866 19.8826 21.993 19.8927 21.9963C19.9028 21.9997 19.9137 21.9999 19.9239 21.9968C21.3662 21.5634 22.7226 20.8913 23.9347 20.0097C23.9406 20.0054 23.9455 20 23.9491 19.9938C23.9527 19.9875 23.9549 19.9806 23.9556 19.9735C24.29 16.5775 23.3956 13.6276 21.5846 11.0125ZM13.3471 18.1842C12.557 18.1842 11.9059 17.4721 11.9059 16.5975C11.9059 15.7229 12.5444 15.0107 13.3471 15.0107C14.1562 15.0107 14.8009 15.7291 14.7883 16.5974C14.7883 17.4721 14.1499 18.1842 13.3471 18.1842ZM18.6757 18.1842C17.8856 18.1842 17.2345 17.4721 17.2345 16.5975C17.2345 15.7229 17.873 15.0107 18.6757 15.0107C19.4848 15.0107 20.1295 15.7291 20.1169 16.5974C20.1169 17.4721 19.4848 18.1842 18.6757 18.1842Z" fill="white"/>
</g>
<defs>
<clipPath id="clip0_3716_11095">
<rect width="16" height="12.5714" fill="white" transform="translate(8 9.71387)"/>
</clipPath>
</defs>
</svg>
