<svg width="32" height="32" viewBox="0 0 32 32" fill="none" xmlns="http://www.w3.org/2000/svg">
<path d="M22.3467 7.24414C22.7201 8.47299 22.4099 9.34714 22.334 9.53711L22.1885 9.90039L22.4521 10.1895C23.1053 10.9067 23.5019 11.8087 23.502 12.9473C23.5019 15.0786 22.8597 16.2686 22.0146 16.9775C21.1388 17.7122 19.9418 18.0202 18.6621 18.1641L17.2402 18.3242L18.3242 19.2588C18.5842 19.4831 18.9053 20.0022 18.9053 20.9736C18.9053 21.7621 18.9012 22.4736 18.8975 23.0381C18.8937 23.5997 18.8897 24.0222 18.8896 24.2246V24.2256C18.8897 24.3164 18.9012 24.4132 18.9238 24.5117C18.1609 24.677 17.3698 24.7676 16.5576 24.7676C15.7557 24.7676 14.9743 24.6815 14.2207 24.5205C14.245 24.4193 14.2577 24.3196 14.2578 24.2256V24.2246C14.2578 24.0801 14.2537 23.7706 14.25 23.3838C14.2463 22.9929 14.2432 22.5145 14.2432 22.0225V21.2725L13.5049 21.4082C12.1082 21.6653 11.3346 21.4755 10.9102 21.2373C10.493 21.0031 10.3189 20.6688 10.2314 20.4229L10.2275 20.4141L10.2246 20.4082C10.7752 20.9767 11.4178 21.2316 12.042 21.2891C12.8383 21.3623 13.5489 21.1125 13.9365 20.9355L14.25 20.792L14.2959 20.4502C14.3822 19.8094 14.6319 19.4385 14.8408 19.2568L15.915 18.3232L14.501 18.1641C13.2228 18.0205 12.0295 17.7095 11.1572 16.9736C10.3148 16.2629 9.67588 15.072 9.67578 12.9473C9.67588 11.822 10.0724 10.9056 10.7246 10.1895L10.9883 9.90039L10.8428 9.53711C10.767 9.34765 10.4577 8.47551 10.8291 7.24902C11.2241 7.29818 12.0203 7.51537 13.2842 8.36621L13.5234 8.52734L13.8018 8.44922C14.6894 8.19962 15.6379 8.07422 16.5889 8.07422C17.5399 8.07426 18.4884 8.19958 19.376 8.44922L19.6562 8.52832L19.8965 8.36426C20.9763 7.63035 21.7142 7.36761 22.1465 7.27734C22.2224 7.2615 22.289 7.25103 22.3467 7.24414Z" stroke="white" stroke-width="1.25"/>
</svg>
