<svg width="60" height="60" viewBox="0 0 60 60" fill="none" xmlns="http://www.w3.org/2000/svg">
<g clip-path="url(#clip0_865_404)">
<path d="M30 0C24.0666 0 18.2664 1.75947 13.3329 5.05591C8.39943 8.35235 4.55426 13.0377 2.28363 18.5195C0.0129986 24.0013 -0.581102 30.0333 0.576455 35.8527C1.73401 41.6721 4.59124 47.0176 8.78681 51.2132C12.9824 55.4088 18.3279 58.266 24.1473 59.4236C29.9667 60.5811 35.9987 59.987 41.4805 57.7164C46.9623 55.4458 51.6477 51.6006 54.9441 46.6671C58.2405 41.7336 60 35.9334 60 30C60 22.0435 56.8393 14.4129 51.2132 8.7868C45.5871 3.16071 37.9565 0 30 0" fill="url(#paint0_linear_865_404)"/>
<path d="M16.133 43.1732L26.9536 17.0124C27.5639 15.6598 28.4711 15 29.667 15H30.6237C31.8196 15 32.7268 15.6598 33.3371 17.0124L38.0464 28.4103H41.6093C42.6732 28.4186 43.5392 29.2763 43.5474 30.3485V30.3732C43.5392 31.4371 42.6732 32.3031 41.6093 32.3113H39.6959L44.1907 43.1732C44.2732 43.4124 44.3227 43.6598 44.3227 43.9155C44.3227 44.5258 44.133 45.0041 43.7949 45.3753C43.4567 45.7464 42.9701 45.9278 42.3598 45.9278C41.9557 45.9196 41.5681 45.7959 41.2464 45.5567C40.9 45.3175 40.6608 44.9711 40.4711 44.5753L35.5227 32.3031H32.0918C31.0278 32.2948 30.1619 31.4371 30.1536 30.3649V30.3155C30.1619 29.2515 31.0278 28.3856 32.0918 28.3773H33.9227L30.1454 18.967L19.8526 44.567C19.6629 44.9629 19.4237 45.3093 19.0773 45.5485C18.7557 45.7876 18.3598 45.9113 17.9639 45.9196C17.3536 45.9196 16.8753 45.7381 16.5289 45.367C16.1825 44.9959 16.001 44.5175 16.001 43.9072C15.9928 43.6598 16.034 43.4041 16.133 43.1732Z" fill="white"/>
</g>
<defs>
<linearGradient id="paint0_linear_865_404" x1="52.3676" y1="11.1794" x2="7.72757" y2="48.7394" gradientUnits="userSpaceOnUse">
<stop stop-color="#B6509E"/>
<stop offset="1" stop-color="#2EBAC6"/>
</linearGradient>
<clipPath id="clip0_865_404">
<rect width="60" height="60" fill="white"/>
</clipPath>
</defs>
</svg>
