<svg width="60" height="60" viewBox="0 0 60 60" fill="none" xmlns="http://www.w3.org/2000/svg">
<g clip-path="url(#clip0_865_486)">
<path d="M30.3081 60C46.8767 60 60.3081 46.5685 60.3081 30C60.3081 13.4315 46.8767 0 30.3081 0C13.7396 0 0.308105 13.4315 0.308105 30C0.308105 46.5685 13.7396 60 30.3081 60Z" fill="#988430"/>
<path d="M30.3081 59.039C46.3459 59.039 59.3471 46.0378 59.3471 30C59.3471 13.9622 46.3459 0.960938 30.3081 0.960938C14.2703 0.960938 1.26904 13.9622 1.26904 30C1.26904 46.0378 14.2703 59.039 30.3081 59.039Z" fill="#7A6A2A"/>
<path d="M30.3082 58.4273C46.0081 58.4273 58.7354 45.7 58.7354 30.0001C58.7354 14.3002 46.0081 1.57288 30.3082 1.57288C14.6083 1.57288 1.88098 14.3002 1.88098 30.0001C1.88098 45.7 14.6083 58.4273 30.3082 58.4273Z" fill="#BA9F33"/>
<path fill-rule="evenodd" clip-rule="evenodd" d="M13.4246 26.796C13.2546 26.6408 13.0751 26.4853 12.91 26.3301C12.7449 26.1749 12.5753 26.0194 12.4054 25.8642L11.9004 25.3842C11.8178 25.3016 11.7305 25.229 11.6479 25.1461C11.5654 25.0735 11.4684 24.9909 11.3858 24.918C10.7158 24.2821 10.0418 23.6463 9.38105 23.0101C10.0655 23.6364 10.7356 24.2581 11.4201 24.8936L11.6578 25.1317C11.7404 25.214 11.8278 25.2869 11.9103 25.3695L12.415 25.8354C12.5849 25.9906 12.75 26.1461 12.9199 26.3154C13.0898 26.4847 13.255 26.6405 13.4249 26.7954L13.4246 26.796ZM4.53145 26.7C4.53145 26.7 6.96825 26.9522 8.15769 27.1221C9.25945 27.2776 12.7062 27.8066 12.7062 27.8066L4.53145 26.7ZM4.53145 26.7C5.21593 26.7583 5.90041 26.8309 6.58489 26.9039C6.93433 26.9378 7.26937 26.9765 7.60441 27.0104L8.11865 27.069C8.28857 27.093 8.45369 27.1173 8.62361 27.1416L10.6626 27.4667L11.6818 27.6367C12.0169 27.6949 12.3519 27.7583 12.7014 27.8165C12.3663 27.7826 12.0169 27.7339 11.6818 27.6853L10.6626 27.5397L8.62361 27.2389C8.45369 27.2146 8.28857 27.1804 8.11865 27.1564L7.60409 27.0972C7.26905 27.0632 6.91961 27.0146 6.58457 26.9756C5.90009 26.8933 5.21561 26.8056 4.53113 26.6991L4.53145 26.7ZM12.4636 28.4415C12.4636 28.4415 9.86169 29.1019 8.98297 29.3544C8.11897 29.5922 5.50233 30.3883 5.50233 30.3883L12.4633 28.4418L12.4636 28.4415Z" fill="#CFB66C"/>
<path fill-rule="evenodd" clip-rule="evenodd" d="M12.4634 28.4417C11.8858 28.6116 11.3114 28.7767 10.7255 28.9322L8.98757 29.3981C8.40997 29.5681 7.83557 29.7332 7.25957 29.9031L6.39557 30.1409C6.10917 30.2234 5.81797 30.2961 5.52197 30.3789C5.80805 30.2829 6.09957 30.1847 6.38597 30.1021L7.24997 29.8257C7.82757 29.6458 8.40197 29.4759 8.97797 29.2964C9.56517 29.1508 10.1431 28.9953 10.7303 28.8545C11.2884 28.7137 11.8759 28.5732 12.4634 28.442V28.4417ZM5.86661 31.9905C6.15269 31.8836 9.45381 30.345 10.2209 29.9857C10.6049 29.8058 11.721 29.4097 11.721 29.4097L5.86661 31.9905Z" fill="#CFB66C"/>
<path fill-rule="evenodd" clip-rule="evenodd" d="M5.86653 31.9904C6.11869 31.8944 6.35677 31.777 6.59933 31.6653L7.31773 31.3302L8.75965 30.6362C9.23965 30.408 9.70621 30.1562 10.2013 29.9418C10.4537 29.8352 10.7062 29.7479 10.9584 29.6653L11.3424 29.544C11.4733 29.5101 11.5949 29.4711 11.7264 29.4371C11.2464 29.6653 10.7411 29.8595 10.2605 30.0826C9.78045 30.3206 9.28957 30.5149 8.79421 30.7283L7.32829 31.3738C6.83613 31.5731 6.35613 31.7866 5.86621 31.9904H5.86653ZM6.18653 33.3344C6.18653 33.3344 9.17661 31.5821 10.2057 31.0189C10.7446 30.7181 12.4873 29.8538 12.4873 29.8538L6.18653 33.3344Z" fill="#CFB66C"/>
<path fill-rule="evenodd" clip-rule="evenodd" d="M6.18689 33.335C6.69153 33.0242 7.20609 32.7087 7.72065 32.3884L8.48865 31.9222C8.75073 31.767 9.00321 31.6214 9.2704 31.4662C9.53248 31.3106 9.78496 31.1554 10.0518 31.0098C10.1789 30.9314 10.312 30.8632 10.4499 30.806L10.8576 30.6022C11.3965 30.3401 11.9354 30.0729 12.5034 29.8447C11.9888 30.1702 11.4595 30.447 10.9306 30.733C10.6685 30.8786 10.4013 31.0098 10.1392 31.1554C9.87712 31.301 9.62464 31.4566 9.35744 31.5974C9.09537 31.7526 8.84289 31.8982 8.57601 32.039L7.78465 32.471L6.18753 33.335H6.18689ZM12.4634 30.2377C12.4634 30.2377 10.6042 31.6649 10.0022 32.1212C9.40032 32.5775 7.62849 33.8591 7.62849 33.8591L12.4634 30.2377Z" fill="#CFB66C"/>
<path fill-rule="evenodd" clip-rule="evenodd" d="M23.1334 41.7476L22.182 39.9466L22.7353 37.6941L26.6819 36.17L25.0022 32.7236L25.8323 29.2429L27.3907 26.1261L32.2063 25.369L35.7449 21.9952L43.3859 22.5728L44.8857 30.7428L41.9974 41.0292L40.352 46.3546L33.6819 46.6071L30.5849 44.4615L26.9587 42.9466L23.1334 41.7476Z" fill="#E2CC85"/>
<path fill-rule="evenodd" clip-rule="evenodd" d="M34.8325 41.6892C34.8325 41.6892 33.9099 42.1116 32.3365 42.0143C31.8811 41.4028 28.692 41.1164 28.692 41.1164C28.692 41.1164 28.2939 40.9951 27.5899 41.2863C26.8814 41.5743 26.2114 41.5388 25.5851 41.694C24.9589 41.8492 24.3371 41.0339 23.8571 40.8639C23.3771 40.6844 22.7406 40.2524 22.7406 40.2524L21.3966 40.1212L18.6978 38.9804L14.4101 34.7087L13.245 36.5327L12.8856 38.79L14.1819 41.4649L17.6722 44.6444L24.4779 46.3724L28.5118 45.1839L33.5653 43.0479L34.8325 41.6889V41.6892Z" fill="#F1D789"/>
<path fill-rule="evenodd" clip-rule="evenodd" d="M10.6528 26.5924L11.5168 23.976L12.5462 22.2864L15.8614 22.0096L14.8662 24.9127L12.0947 29.8448L13.2451 34.2477L11.2064 35.2669L10.5798 34.3059L10.0752 32.1021L10.0413 29.6263L10.6528 26.5924Z" fill="#F4ECB4"/>
<path fill-rule="evenodd" clip-rule="evenodd" d="M14.3713 41.5097L13.7355 40.6214C13.7355 40.6214 13.5655 40.199 13.6628 39.8301C13.7588 39.4563 13.7451 39.432 13.6967 39.2912C13.6484 39.1504 13.2404 38.6649 13.2647 38.2473C13.2887 37.8249 13.2308 37.6841 13.5412 37.3494C13.8663 37.0243 13.7694 36.4611 13.7694 36.4611L14.1918 36.7232L14.2878 36.5776C14.2878 36.5776 14.443 36.6989 14.443 36.8883C14.4769 36.6262 14.3361 35.4125 14.6564 35.136C14.9767 34.8595 15.5447 36.432 15.5447 36.432L15.1953 34.1504L14.297 31.8109L12.6999 29.6749L12.6039 27.3203V27.1165C12.6039 27.1165 11.8708 28.2429 11.667 29.1325C11.5214 29.744 11.8708 30.4867 11.7982 31.3654C11.7396 32.2393 11.667 32.1712 11.8804 32.5174C12.0939 32.8637 12.6135 33.5757 12.4097 34.0902C12.2302 34.5321 11.6183 34.2214 11.6183 34.2214C11.6183 34.2214 11.497 34.5805 11.3319 34.7117C11.2737 34.4982 11.2106 34.3622 11.0942 34.2317C11.0842 34.3142 11.0603 34.4259 11.0603 34.4259C11.0603 34.4259 10.9534 34.0909 10.8465 33.6685C10.7012 33.1056 10.5457 32.3629 10.4049 31.9648C10.3466 32.1929 10.201 32.887 10.201 32.887L10.2836 33.9552L10.6817 35.4211L11.0657 36.3811L11.4395 37.5558L11.7643 38.3449L12.0263 38.9469L12.2545 40.3014L13.3563 41.4662L13.9438 41.7286L14.3707 41.5101L14.3713 41.5097Z" fill="#F3E19D"/>
<path fill-rule="evenodd" clip-rule="evenodd" d="M11.2303 24.4563C11.2303 24.4563 10.4389 25.8003 10.2111 27.1552C9.98322 28.5101 9.77906 29.9418 9.92306 31.7862C10.0687 33.6458 10.3455 34.7862 10.5688 35.6019C10.9528 36.9565 11.9474 38.84 11.9474 38.84L11.9813 38.767C11.8141 38.4501 11.6807 38.1166 11.5832 37.7718C11.452 37.2573 11.4034 36.6457 11.2821 36.3689C11.1752 36.0925 10.9957 35.8544 10.9083 35.5145C10.8258 35.1894 10.8123 34.6749 10.5589 34.2915C10.452 34.136 10.3208 33.7283 10.2821 33.3206C10.2335 32.7088 10.3064 32.0243 10.2482 31.4614C10.1413 30.5245 10.0687 29.8886 10.1656 29.3981C10.2626 28.9075 10.7679 27.5149 11.0786 26.408C11.2824 25.6992 11.1608 25.1021 11.5346 24.4855C11.9083 23.8739 12.1368 23.3351 12.2191 22.9613C12.3151 22.6215 11.229 24.4563 11.229 24.4563H11.2303Z" fill="#F2E8B0"/>
<path fill-rule="evenodd" clip-rule="evenodd" d="M14.983 23.9175C14.983 23.9175 14.5753 24.0391 14.3811 24.2525C14.1869 24.4564 14.1043 24.6263 13.8422 24.9709C13.5801 25.3156 13.5654 25.5972 13.3517 26.0292C13.1382 26.4516 12.6672 27.0874 12.6089 27.3156C12.5507 27.5437 12.4537 28.6116 12.3325 29.1165C12.2256 29.6215 12.4537 30.2429 12.4537 30.2429L12.7302 30.1844C12.7302 30.1844 12.7302 30.5437 13.007 30.7866C13.2835 31.0244 13.3321 29.9805 13.3321 29.9805L14.3661 26.4903L15.9241 25.432L16.0941 24.5776L14.9824 23.9175H14.983Z" fill="#F5EEC0"/>
<path fill-rule="evenodd" clip-rule="evenodd" d="M15.7401 25.5002C15.7401 25.5002 15.007 25.5485 14.6479 25.8109C14.5023 25.9174 14.4441 26.0048 14.2889 26.136C14.0025 26.3738 13.711 26.5923 13.5705 26.904C13.415 27.2144 13.2451 27.6854 13.1286 28.5738C13.0799 28.9475 13.0799 29.2922 13.046 29.5933C12.9974 30.001 12.9247 30.3261 12.9635 30.5533C13.0121 31.0192 13.4927 31.2621 13.5395 31.7911L14.5347 31.2864L15.4716 27.592L17.462 26.344L16.3356 25.0819L15.7388 25.4979L15.7401 25.5002Z" fill="#E6DB9D"/>
<path fill-rule="evenodd" clip-rule="evenodd" d="M10.4899 50.3772C10.4941 50.3407 10.4983 50.3043 10.5024 50.2668C10.6477 49.0188 10.6723 48.0729 10.7789 47.4806C10.9341 46.6409 11.041 46.3286 11.0167 46.0143C10.9827 45.5097 10.944 45.1407 10.9927 44.7523C11.0653 44.2377 11.5703 43.6262 11.5559 43.2038C11.5459 42.8687 11.376 42.6505 11.2304 42.4467C11.0848 42.2428 10.9683 42.0729 10.9683 42.0729C10.9683 42.0729 11.9635 41.3884 11.9539 38.631C11.9743 38.6367 11.9938 38.6449 12.0122 38.6553L12.5024 40.0483L12.8375 40.4559L14.1239 42.854L15.7792 44.4611L18.2256 46.1065L19.7597 47.7759L19.9149 52.2275L17.9101 54.8294L17.5818 55.4239C14.9734 54.1145 12.5815 52.4123 10.4896 50.3769L10.4899 50.3772Z" fill="#E5CB7A"/>
<path fill-rule="evenodd" clip-rule="evenodd" d="M16.614 54.6357C16.614 54.6357 16.6479 54.0825 17.1043 53.7231C17.1772 53.8444 17.2255 53.9612 17.2111 54.0482C17.2937 53.9029 17.8713 52.9708 19.1772 52.7279C20.4831 52.4901 20.7987 51.5388 20.7987 51.5388L23.5702 49.0194L26.7401 46.102L30.5945 44.7474L32.3958 44.3055C32.3958 44.3055 32.4297 44.4367 32.3618 44.7279C32.6966 44.7039 33.4393 44.534 34.2111 44.262C34.5218 44.1407 34.8134 44.0921 34.9686 44.2524C35.1967 44.4658 35.2306 44.9708 35.245 45.2716C35.6188 45.189 36.0508 44.83 36.397 44.8639C36.9506 44.9221 37.4409 45.5727 38.0041 45.5727C38.7468 45.5727 39.0815 45.1164 39.6012 44.757C39.9119 44.5436 40.3583 44.277 40.6108 44.0969C41.2127 43.6549 47.5817 41.7084 47.5817 41.7084L49.8146 41.854L50.174 44.2521L49.982 50.5209C49.9583 50.5436 49.9346 50.5673 49.9106 50.59L39.7577 55.8927L25.6841 58.0501C22.5315 57.5351 19.4893 56.4886 16.687 54.9554L16.615 54.6354L16.614 54.6357Z" fill="#D8C173"/>
<path fill-rule="evenodd" clip-rule="evenodd" d="M11.3433 51.1747C11.5433 50.7565 11.7231 50.4067 11.7548 50.2816C11.7797 50.5338 11.8255 51.0871 11.9177 51.6752C11.7242 51.5107 11.5327 51.3438 11.3433 51.1744V51.1747Z" fill="#F1D789"/>
<path fill-rule="evenodd" clip-rule="evenodd" d="M21.6239 57.0742L23.4441 56.568L23.5993 56.6166C23.5993 56.6166 23.6819 56.6653 23.6819 56.8301C23.91 56.6992 24.1043 56.7232 24.2451 56.6362C24.3177 56.7914 24.3903 57.3059 24.711 57.369C25.0457 57.4419 25.4051 57.2234 25.7692 56.9469C26.1283 56.6605 26.5372 56.3011 26.8467 56.1555C26.9602 56.3643 27.0608 56.5798 27.1478 56.801C27.5555 56.4759 28.2643 55.1555 29.2739 55.1795C29.5657 54.4899 30.0532 53.901 30.6761 53.4854C31.6131 52.8496 32.2003 52.801 32.9334 52.8592C33.2246 52.481 33.5834 52.16 33.9916 51.9126C34.1129 51.9613 34.448 52.1651 34.8656 51.9709C35.288 51.777 35.7635 51.0243 36.3897 50.9274C36.7272 50.8809 37.0703 50.953 37.3606 51.1312C37.3606 51.1312 39.1846 49.3203 40.4432 48.7184C40.3945 48.5728 40.2976 48.0243 41.7731 46.8106C41.8557 46.8835 41.7974 47.0874 41.8557 47.0986C41.8797 47.0986 42.2397 46.9434 42.6953 46.5936C43.2585 46.1715 43.9331 45.7296 44.3408 45.6083C45.1088 45.3802 45.9235 45.8461 45.9235 45.8461C45.9928 45.7975 46.07 45.7613 46.1517 45.7392C46.3456 45.7053 46.4864 45.681 46.5933 45.6432C46.5837 45.8957 46.7245 46.3277 46.5933 46.7014C46.7452 46.7869 46.9062 46.8553 47.0733 46.9053C46.991 47.0848 46.8112 47.5411 46.5104 47.7597C46.7625 47.881 46.7965 48.0218 47.1558 48.1437C47.0102 48.3475 46.7718 48.6973 46.6656 48.9117C46.5587 49.1398 46.175 50.0864 46.0051 50.4454C45.8256 50.8048 45.583 51.465 45.4662 51.5974C45.3494 51.7299 44.9273 52.2915 44.6022 52.568C44.8902 52.4611 46.0685 52.1021 46.5683 51.9661C46.4195 52.1843 45.6653 53.3034 44.9401 54.3795C41.4683 56.4605 37.5928 57.7776 33.5719 58.243C29.5511 58.7085 25.4772 58.3117 21.6217 57.079L21.6239 57.0742Z" fill="#E0CD81"/>
<path fill-rule="evenodd" clip-rule="evenodd" d="M15.8601 25.3689C15.8601 25.3689 15.4381 25.3689 15.3555 25.4271C15.2729 25.4854 15.7779 25.607 15.9331 25.6652C16.0883 25.7234 16.4233 25.9903 16.5107 26.2041C16.5933 26.4079 19.5446 27.597 19.5446 27.597L21.632 27.4902L22.3517 26.4959L20.9827 25.2969L21.9427 22.4668L20.6711 22.6706L17.6128 24.4946L16.0787 25.0822L15.8601 25.3689Z" fill="#DFC57C"/>
<path fill-rule="evenodd" clip-rule="evenodd" d="M20.444 26.3059C20.4742 26.3547 20.5167 26.3948 20.5672 26.422C20.6178 26.4493 20.6746 26.4628 20.732 26.4611C21.164 26.4611 21.5618 26.568 21.7269 26.7862C22.0037 27.136 22.7707 28.2525 22.7707 28.2525L24.6056 28.9126L24.724 26.752L22.7192 25.359L20.4376 26.1987V26.3056H20.4427L20.444 26.3059Z" fill="#E5CC7C"/>
<path fill-rule="evenodd" clip-rule="evenodd" d="M20.084 27.1069C20.084 27.1069 20.4187 27.1312 20.8411 26.9757C21.2635 26.8202 21.9576 26.4854 22.2587 26.6166C22.6808 26.7962 22.5935 27.3594 23.0501 27.8646C23.3266 28.1754 23.8315 28.1658 24.1179 28.5008C24.4043 28.8358 25.3896 28.6803 25.3896 28.6803L25.7634 30.6963L24.2635 32.6189L23.773 35.007H21.7448L19.892 34.272L18.9794 32.064L19.4357 29.831L20.084 27.1069Z" fill="#D2C281"/>
<path fill-rule="evenodd" clip-rule="evenodd" d="M24.0073 27.2038C24.0576 27.2193 24.1099 27.2275 24.1625 27.2281C24.1043 27.2767 23.9827 27.3833 24.0313 27.6601C24.08 27.9369 24.2352 28.2863 24.1043 28.4998C24.2088 28.614 24.2867 28.75 24.3325 28.8979C24.415 29.1359 24.4393 29.3542 24.9779 29.3884C24.9002 29.4363 24.8285 29.4933 24.7645 29.5583C24.7645 29.5583 25.1382 29.8834 25.3277 30.1842C25.5216 30.1759 26.0361 30.0159 26.0361 30.0159L26.143 30.0889L26.3712 29.9929C26.3712 29.9929 26.1577 29.9103 26.3129 29.391C26.4585 28.9347 26.5897 28.959 26.6009 28.9251C26.6121 28.8911 26.7078 28.4105 26.7078 28.2163C26.7805 27.9641 26.8387 27.1971 26.8387 27.1971L26.6835 25.503L25.8099 24.9737L25.0995 24.288L24.4294 25.55L23.9881 25.99L23.9542 27.0822L24.0073 27.2038Z" fill="#E2C270"/>
<path fill-rule="evenodd" clip-rule="evenodd" d="M26.109 25.7865C26.109 25.7865 26.2642 26.2281 26.3228 26.568C26.3434 26.5019 26.3548 26.4333 26.3567 26.3641C26.3567 26.3641 26.478 27.0342 26.502 27.311C26.5506 27.3011 26.598 27.2867 26.6088 27.335C26.6197 27.3833 26.7304 27.9225 26.7048 28.2233C26.907 27.8898 27.1867 27.6101 27.5202 27.408C27.7144 27.2864 27.9426 27.1555 28.1807 27.1456C28.5544 27.136 28.8261 27.3837 29.2728 27.3837C30.3503 27.3837 31.3263 26.5923 32.0447 26.3497C32.5736 26.1699 33.03 26.039 33.3503 25.7475C33.5058 25.6166 33.7826 25.3254 34.0348 24.8931C34.3698 24.3171 34.7192 23.8157 35.069 23.7526C34.9108 23.7817 34.7498 23.7931 34.589 23.7865C34.589 23.7865 34.6959 23.6797 34.877 23.5341C35.0581 23.3885 35.2751 23.2089 35.5855 23.2089C36.1391 23.2089 36.4156 23.2912 36.7263 23.2912C37.037 23.2816 37.2165 23.2089 37.2165 23.2089C37.2165 23.2089 37.542 23.4371 38.2748 23.4371C39.0079 23.4467 39.4981 23.5097 39.8818 23.544C40.2655 23.5782 41.5516 23.4371 41.9205 23.448C42.1611 23.4572 42.3973 23.515 42.6149 23.6179L41.4255 20.1619L37.1528 16.4275L34.6092 18.2285L30.6962 22.1411L26.91 23.544L26.1186 24.4323V25.7865H26.109Z" fill="#CCB360"/>
<path fill-rule="evenodd" clip-rule="evenodd" d="M34.6044 23.8058C34.6044 23.8058 34.7113 23.6993 34.8905 23.5537C35.0697 23.4081 35.2889 23.2282 35.5993 23.2282C36.1525 23.2282 36.4294 23.3108 36.7401 23.3108C37.0508 23.3012 37.2303 23.2282 37.2303 23.2282C37.2303 23.2282 37.5561 23.4561 38.2886 23.4561C39.0217 23.4657 39.5119 23.5287 39.8956 23.5626C40.2793 23.5966 41.5654 23.4561 41.9343 23.4666C42.1748 23.4757 42.4109 23.5335 42.6284 23.6366L42.0895 22.0782L41.4636 20.889L39.677 18.9326C39.677 18.9326 37.533 17.6705 37.5167 17.6609C37.5071 17.6513 36.774 17.457 36.774 17.457L34.8322 18.6318L33.0703 23.1902L33.0364 24.1502L34.1769 24.689C34.4633 24.209 34.7791 23.825 35.0751 23.7764C34.8079 23.8055 34.6041 23.8055 34.6041 23.8055L34.6044 23.8058Z" fill="#D5B457"/>
<path fill-rule="evenodd" clip-rule="evenodd" d="M34.5801 24.1312C34.4102 24.1408 34.2697 24.1069 34.2307 23.9856C34.0851 23.5779 33.9686 23.5197 33.8467 23.5197C33.7247 23.5197 33.5603 23.7817 33.4627 23.8057C33.3651 23.8297 33.2492 23.5049 33.2492 23.5049L33.1423 23.4563C33.1423 23.4563 32.5161 23.864 32.0745 24.3446C31.6329 24.8253 30.9094 25.6409 30.5843 25.7862C30.2592 25.9315 29.1424 25.9805 28.7603 26.063C28.3782 26.1456 27.9545 26.4224 27.8963 26.4854C27.8381 26.5485 28.0665 26.6163 28.1005 26.6793C28.1344 26.7376 27.7264 26.7133 27.6925 26.7753C27.6685 26.824 27.7885 27.1005 27.848 27.2413C27.9521 27.1895 28.0664 27.1613 28.1827 27.1587C28.5565 27.1491 28.8285 27.3968 29.2749 27.3968C30.3526 27.3968 31.3283 26.6054 32.0467 26.3625C32.5759 26.183 33.0323 26.0518 33.3526 25.7606C33.5078 25.6297 33.7846 25.3382 34.0371 24.9062C34.2214 24.6102 34.4012 24.3334 34.5811 24.1296L34.5801 24.1312Z" fill="#D2B257"/>
<path fill-rule="evenodd" clip-rule="evenodd" d="M19.1242 48.1555C19.1242 48.1555 19.0282 47.7962 18.1386 46.8691C17.8861 46.607 17.7309 46.3891 17.561 46.2333C17.1386 45.8349 16.8909 45.7283 16.5901 45.5002C15.9299 45.0099 15.2115 45.0099 14.6583 44.408C14.105 43.8061 13.4602 42.656 13.0122 41.4806C12.5706 40.3059 12.449 39.9321 12.449 39.8982C12.449 39.8643 12.5706 39.6361 12.7258 39.6701C12.881 39.704 12.881 40.0048 12.92 40.0777C12.9973 40.1968 13.085 40.3088 13.1821 40.4125C13.4103 40.6749 13.7354 40.9885 13.9005 41.4563C13.8666 41.0582 13.7306 40.6166 13.7306 40.6166C13.7306 40.6166 14.585 41.1555 15.313 41.7184C16.0461 42.2816 16.3469 42.4758 16.561 42.8349C16.775 43.1939 17.2794 44.1408 17.521 44.4176C17.7626 44.6944 21.073 45.7379 21.073 45.7379L22.6477 46.912L23.4294 48.6256L22.8176 49.5856L21.6429 49.8381L19.735 48.9837L19.1242 48.1552V48.1555Z" fill="#D2B159"/>
<path fill-rule="evenodd" clip-rule="evenodd" d="M14.8856 42.2525C14.8856 42.2525 15.2837 42.8883 16.2546 43.4903C17.1285 44.0195 18.5119 44.5002 19.7451 44.7866C20.4536 44.9565 21.1624 45.0874 21.7982 45.0973C23.5118 45.1213 24.6914 44.6314 26.1528 44.4711C26.9442 44.3885 27.915 44.3255 28.9246 44.0871C30.2206 43.7763 30.9877 43.4266 32.0315 42.9351C32.7886 42.5856 33.483 42.3235 34.0459 41.9885C34.8373 41.5226 35.4149 41.0032 36.0849 40.848C36.0024 41.0762 35.915 41.4839 35.2549 41.9063C35.6043 41.8963 36.0849 41.8723 36.0849 41.8723C36.0849 41.8723 35.619 42.1488 34.7985 42.7703C34.2936 43.1543 33.6238 43.8042 32.9393 44.2362C32.4974 44.513 32.0168 44.7162 31.7013 44.8819C30.9333 45.3043 30.6235 45.5178 30.1189 46.0339C30.2984 46.0243 30.3131 46.0339 30.3131 46.0339C30.3131 46.0339 29.677 46.1165 29.221 46.3591C29.125 46.3591 28.9586 46.3251 28.6674 46.4077C28.4392 46.4803 28.1381 46.6458 27.8277 46.7328C27.3858 46.864 27.2405 46.8058 27.2405 46.8058L27.3131 46.9514C27.3131 46.9514 26.7371 46.9415 26.5451 46.961C26.579 46.9706 26.5694 46.9853 26.5694 46.9853C26.5357 46.991 26.5032 47.0024 26.4734 47.0192C26.381 47.0791 26.2794 47.1233 26.1726 47.1501C26.1144 47.1597 26.0658 47.1597 25.9928 47.1744C26.0171 47.2327 26.2066 47.5584 26.2939 47.7504C26.2213 47.7991 25.1288 48.6243 25.1288 48.6243C25.1627 48.6777 25.1904 48.7347 25.2114 48.7943C25.2453 48.9008 25.26 49.0563 25.2939 49.129C25.3762 49.2746 25.4248 49.2989 25.4248 49.2989C25.4248 49.2989 25.2939 49.3232 25.0654 49.3815C24.8715 49.4301 24.6334 49.5123 24.2974 49.561C24.1944 49.5744 24.0906 49.5825 23.9867 49.5853C24.0354 49.6922 24.2488 50.0999 23.8555 50.5706C23.4622 51.0413 23.341 51.1098 23.2197 51.4106C23.1586 51.3644 23.0936 51.3237 23.0254 51.289C22.8946 51.2307 22.7147 51.1437 22.6517 51.0269C22.6149 51.1825 22.5663 51.3351 22.5061 51.4832C22.3848 51.8083 22.2053 52.129 22.1714 52.3715C22.0402 52.2259 21.7976 51.9395 21.4626 51.9978C21.1275 52.056 20.8607 52.5123 20.8024 52.6435C20.8024 52.561 20.7442 52.4979 20.7298 52.5949C20.7198 52.7018 20.5355 53.8179 19.5064 54.721C19.4968 54.4928 19.4968 53.9879 19.4725 53.8231C19.3765 53.9191 19.2591 54.0608 18.5599 54.3619C17.8754 54.6627 17.9839 54.9639 17.9839 54.9639C17.9839 54.9639 17.9256 54.4839 18.2946 53.9783C18.6683 53.4736 18.8965 53.2355 18.8965 53.1968C18.8905 53.1574 18.8736 53.1204 18.8479 53.0899C18.7992 53.0413 18.7023 52.9831 18.7023 52.9443C18.7605 52.9203 19.3381 52.6435 19.3042 52.0704C19.2703 51.5562 19.052 51.289 18.8965 51.0999C18.8725 51.0755 19.125 50.896 19.0907 50.8378C19.0664 50.8039 18.756 50.5754 18.717 50.4538C18.7262 50.3812 18.7424 50.3097 18.7656 50.2403C18.7995 50.1335 18.8239 50.0605 18.8143 49.9879C18.7899 49.8666 18.6587 49.5315 18.62 49.4976C18.6539 49.5072 18.8965 49.4976 18.8965 49.4976C18.8965 49.4976 18.7026 49.1869 18.6683 49.0413C18.6341 48.8957 18.5615 48.512 18.5227 48.4394C18.6053 48.449 18.8091 48.4634 18.8091 48.4394C18.8191 48.3664 18.6296 48.2451 18.7131 48.1514C18.7714 48.161 18.8831 48.2096 18.9896 48.3456C18.9314 48.1901 18.8344 47.8893 18.6303 47.768C18.7263 47.7341 19.0527 47.6464 19.3391 47.8163C19.6255 47.9863 19.7231 48.224 19.7231 48.224C19.7231 48.224 19.893 48.3552 20.1554 48.5495C20.4562 48.7872 20.8395 49.1255 21.4514 49.3648C21.5826 49.4378 21.9173 49.4378 22.1602 49.3891C22.2659 49.3639 22.3673 49.3231 22.461 49.2679C22.4948 49.2479 22.5306 49.2316 22.5678 49.2192C22.5157 49.1145 22.4557 49.0138 22.3883 48.9181C22.4709 48.9181 22.5678 48.928 22.5678 48.928C22.5678 48.928 22.6261 48.7968 22.364 48.544C22.4222 48.4858 22.4952 48.448 22.4952 48.3498C22.4126 48.3402 22.267 48.2189 22.2331 48.1703C22.2814 48.1363 22.3544 48.0247 22.437 47.9907C22.364 47.9325 22.1845 47.6896 22.1019 47.6656C22.1808 47.6363 22.2571 47.6006 22.3301 47.5587C22.3301 47.5587 21.9224 47.4519 21.7912 47.3645C21.66 47.2685 21.4661 47.1024 21.3496 47.0538C21.228 47.0051 21.0146 46.9811 20.9272 46.8839C21.0094 46.9082 21.1406 46.8839 21.2379 46.8839C21.3106 46.8839 21.3448 46.8935 21.3688 46.8935C21.3592 46.8595 21.3592 46.7866 21.5486 46.7626C21.6398 46.7488 21.7282 46.721 21.8107 46.68C21.8107 46.68 21.6309 46.6704 21.4267 46.4762C21.2226 46.2819 21.053 46.1267 20.9365 46.1024C20.8152 46.0781 20.5871 46.185 20.4463 46.1751C20.252 46.1511 20.1695 46.0538 20.1695 46.0538C20.1695 46.0538 19.524 46.112 18.092 45.2384C16.8539 44.481 16.3151 43.8112 16.3151 43.8112C16.1992 43.7692 16.0872 43.7171 15.9803 43.6557C15.5144 43.4131 14.8687 42.9082 14.8882 42.2477L14.8856 42.2525Z" fill="#C2A44D"/>
<path fill-rule="evenodd" clip-rule="evenodd" d="M32.7448 13.1164C32.8571 13.1529 32.9569 13.2202 33.0328 13.3107C33.261 13.5727 33.4066 14.0678 32.8872 14.5971C33.0911 14.6697 33.1752 14.6931 33.3532 14.6697C33.1736 14.8835 32.766 15.3398 32.7416 15.7379C32.7173 16.063 32.9212 16.1603 32.9212 16.1603C32.9212 16.1603 32.6104 16.5193 32.596 17.1203C32.7428 16.9548 32.9034 16.8021 33.076 16.6639C33.4354 16.3775 33.9304 16.0524 34.2655 15.8486C34.2609 15.934 34.2724 16.0196 34.2994 16.1007C34.2994 16.1007 34.9253 15.5862 35.4514 15.8147C35.6892 15.9215 35.5823 16.2563 35.5823 16.2563C35.5823 16.2563 35.9077 16.135 36.1359 16.3631C36.364 16.5913 36.6866 17.1798 36.852 17.4079C36.9247 17.5148 37.1141 17.7187 37.308 18.0342C37.573 18.4759 37.7942 18.9425 37.9685 19.4271C37.9781 19.1747 38.0412 18.7817 38.7599 19.0291C39.4783 19.2815 40.2937 19.8108 40.9781 20.8531C41.6626 21.8953 41.8322 23.0719 42.1769 23.5199C42.5263 23.9519 42.8857 24.6703 42.91 24.9715C42.9343 25.2726 42.8031 26.2431 43.5215 28.8694C43.7253 28.054 44.0361 26.2431 44.0361 26.2431L44.206 24.646L44.4002 19.7043L39.2399 15.4172L35.206 12.4899L32.5797 12.7423L32.7445 13.1161L32.7448 13.1164Z" fill="#CAA13E"/>
<path fill-rule="evenodd" clip-rule="evenodd" d="M42.3325 20.4707C42.3325 20.4707 42.2595 19.9907 41.0461 19.1747C39.8323 18.3689 38.8857 18.3689 38.0121 17.6844C37.3421 17.1456 36.6432 15.9075 36.1881 15.4998C35.7462 15.0969 35.6736 13.9318 35.6736 13.9318L37.1638 12.6838L39.3801 9.48028L41.2537 7.41724L42.1517 8.66524L43.3997 10.1312L44.0937 13.0729L44.3462 17.3788L42.3302 20.471L42.3325 20.4707Z" fill="#B59544"/>
<path fill-rule="evenodd" clip-rule="evenodd" d="M43.8326 25.632C43.8693 24.979 43.7887 24.3247 43.5945 23.7002C43.2745 22.705 42.5753 20.9379 42.2505 20.2762C42.1193 19.5431 42.2166 19.4848 42.3574 19.4023C42.4982 19.3197 43.0275 19.0183 43.3174 17.9607C43.6073 16.9031 44.5068 16.8685 44.5068 16.8685L45.0601 16.4608L45.9001 18.5626L46.6329 20.4608L46.8611 21.9123L47.031 23.1501L46.6329 25.7667L44.6671 27.5434L43.8323 25.632H43.8326Z" fill="#C89D3A"/>
<path fill-rule="evenodd" clip-rule="evenodd" d="M16.4005 54.7965V54.7428C16.4414 54.7172 16.4774 54.6847 16.5071 54.6468C16.541 54.5981 16.5656 54.5399 16.5896 54.5255C16.6383 54.5012 16.8664 54.4295 16.9877 54.4525C17.109 54.4756 17.4296 54.6077 17.5996 54.5981C17.949 54.5885 18.3567 54.3213 19.0024 54.4429C19.9733 54.6224 20.2015 55.2826 20.7647 55.6564C21.1487 55.9188 21.5461 55.802 21.6044 55.802H21.7353C21.7596 55.802 21.9391 55.5981 22.0364 55.608C22.2306 55.6176 22.2498 55.778 22.3711 55.7876C22.6575 55.8215 23.2111 55.642 23.4879 55.7149C23.57 55.7406 23.6446 55.7858 23.7055 55.8466C23.7663 55.9074 23.8116 55.982 23.8373 56.064C23.8956 56.2436 23.847 56.4717 23.7061 56.6029C23.4053 56.8794 23.1189 57.1418 23.0607 57.3709C23.1348 57.4274 23.2059 57.4877 23.2738 57.5514C20.872 56.9395 18.561 56.0142 16.4005 54.7994V54.7965Z" fill="#CEB052"/>
<path fill-rule="evenodd" clip-rule="evenodd" d="M42.2499 45.0973C42.2499 45.0973 43.007 44.0877 43.2694 43.5875C43.5315 43.072 42.4393 36.544 42.4393 36.544L44.6336 29.3549L44.575 27.015C44.575 27.015 44.6819 24.8547 44.9344 23.9178C45.2355 24.4566 46.1725 25.1072 46.3763 25.4518C46.4723 24.7914 46.7984 23.3984 46.7501 21.913C46.9296 22.1894 47.3616 24.9712 47.3616 24.9712L47.7936 26.8448L48.3568 28.8352L48.983 30.9373L49.3568 32.3888L49.5702 32.7382L49.7501 33.3498L49.92 34.0102L50.4102 35.5587L50.6982 36.8304L50.9264 39.1363C50.976 39.3129 51.0118 39.4931 51.0333 39.6752C51.0429 39.9277 50.9994 40.0733 50.9994 40.1171C50.9994 40.161 51.0819 40.6704 51.048 41.0541C50.9994 41.4381 50.9994 41.7386 50.6982 42.0141C50.3971 42.2896 50.208 43.9363 50.208 43.9363L49.6691 43.5773C49.6691 43.5773 49.776 43.0867 49.5235 42.6403C49.271 42.1939 48.7808 42.1014 48.504 42.1744C48.2275 42.2326 47.6742 42.3197 47.4944 42.4752C47.3245 42.6304 46.9072 43.111 46.5235 43.3296C46.0435 43.6176 45.2614 43.6403 44.8441 43.7373C44.4217 43.8333 43.9558 44.1213 43.4652 44.4557C43.0806 44.7047 42.6745 44.9189 42.2518 45.0957L42.2499 45.0973Z" fill="#CCA847"/>
<path fill-rule="evenodd" clip-rule="evenodd" d="M42.2499 55.704C42.2499 55.704 42.2819 55.7248 42.3436 55.7588C45.7925 54.1429 48.8826 51.8525 51.4316 49.0228C51.4038 48.0404 51.3676 47.0333 51.328 46.6602C51.2457 45.8688 51.304 45.0631 51.2796 44.5972C51.2553 44.1312 50.9932 42.233 50.872 41.7428C50.7408 41.2525 50.488 41.0096 50.4496 41.0096C50.4156 41.0196 50.2115 41.9322 50.2115 42.1616C50.2115 42.3911 50.1628 42.9434 50.1628 43.0842C50.1289 43.0743 50.1145 42.9882 50.1145 42.953C50.0659 43.0743 50.0076 43.288 49.9833 43.3124C49.959 43.3367 50.0172 43.1085 49.9833 43.0599C49.9494 43.0112 49.8873 43.0356 49.9008 42.9143C49.9065 42.8424 49.9178 42.771 49.9347 42.7008C49.9347 42.7008 49.7891 42.9143 49.6825 43.458C49.5756 43.9968 49.5756 44.0116 49.5369 44.0599C49.503 44.1184 49.3088 44.3124 49.2988 44.3853C49.2892 44.5162 49.4787 44.6474 49.4931 44.72C49.5027 44.8416 49.3232 45.4045 49.2649 45.68C49.2067 45.9556 49.231 46.4954 49.1689 46.7722C49.1203 47.0247 49.0729 47.1703 48.9068 47.2768C49.0281 47.3012 49.1446 47.3351 49.1446 47.3351C49.1446 47.3351 49.3145 48.0535 48.8825 48.6653C48.7273 48.8788 48.6886 48.976 48.5235 49.1703C48.198 49.5293 47.9456 49.9383 47.9212 50.2042C47.9044 50.1257 47.8931 50.0462 47.8873 49.9661C47.8873 49.9661 47.3827 50.5536 47.1689 50.8887C46.8924 51.3207 46.5088 51.2964 46.4009 51.4032C46.2931 51.5101 46.2697 51.704 46.3049 51.8596C46.2089 51.8836 46.0284 51.9178 45.9068 52.2916C45.8486 52.4855 45.703 52.6756 45.4748 52.8061C45.2467 52.9367 44.9699 52.976 44.8291 53.01C44.9504 53.0439 44.999 53.0439 45.0572 53.0826C44.9846 53.2039 44.6496 53.3933 44.2758 53.6362C43.902 53.8644 43.7222 54.1991 43.63 54.4176C43.534 54.6215 43.3923 54.7527 43.1641 54.777C43.2601 54.8352 43.4022 54.9709 43.4748 55.0148C43.368 55.0391 43.1868 55.0391 42.8633 55.3159C42.5235 55.5975 42.407 55.68 42.2515 55.7044L42.2499 55.704Z" fill="#C39D3C"/>
<path fill-rule="evenodd" clip-rule="evenodd" d="M35.4954 57.9535C35.6813 57.8233 35.8826 57.7165 36.0947 57.6358C36.8519 57.335 37.6528 57.2767 37.9683 57.1798C38.2695 57.0838 38.5072 56.9513 38.881 56.8787C38.8711 56.9638 38.8627 57.0438 38.8538 57.1193C37.7519 57.4657 36.6298 57.7443 35.4938 57.9535H35.4954Z" fill="#D2BA6B"/>
<path fill-rule="evenodd" clip-rule="evenodd" d="M49.4601 38.039C49.4601 38.039 49.3049 38.8787 49.0281 39.408C48.7513 39.9372 48.4521 40.67 48.4521 40.67C48.4539 40.5049 48.4735 40.3404 48.5104 40.1795C48.1609 40.3833 47.3113 40.8739 47.0704 41.0921C46.8422 41.2959 46.4585 41.6553 46.3616 41.8252C46.5897 41.1555 46.8275 40.5536 46.8665 40.2768C46.5171 40.5292 44.8857 41.8739 44.0364 42.7622L41.3907 44.903C41.0854 45.0677 40.7709 45.2149 40.4489 45.3439C39.9929 45.5379 39.454 45.703 39.056 45.8585C39.1628 45.5721 39.3324 45.3193 39.5705 45.0767C39.823 44.839 40.5801 44.0185 40.6966 43.6367C40.8035 43.2387 40.8278 43.0009 40.687 42.6659C40.5558 42.6998 40.255 42.7145 40.0512 42.7727C39.8473 42.831 39.6288 43.0492 39.6288 43.0492C39.6288 43.0492 39.784 42.1609 40.119 41.3212C39.8665 41.3308 39.4345 41.4035 39.4345 41.4035C39.4345 41.4035 40.0364 40.3939 41.0665 39.6902C40.7511 39.7573 40.4424 39.8531 40.1443 39.9763C39.5424 40.2288 38.8822 40.6025 38.392 40.8063C38.6684 40.4223 40.6102 37.6512 41.7657 35.0684C42.9177 32.4908 43.3481 31.8307 43.6006 30.4473C43.7315 29.7629 43.6966 28.7513 43.7315 27.8454C43.7654 26.9472 43.8771 26.1414 43.8044 25.6025C44.1052 25.9763 45.2316 27.0297 45.2704 29.3843C45.3043 31.7385 44.1929 34.9184 43.0131 36.6316C43.3011 36.7142 44.0473 36.8115 44.8141 35.4796C45.5808 34.1478 45.5715 33.776 45.8483 33.2224C45.8822 33.4992 45.8723 33.5961 45.8723 33.5961C45.8723 33.5961 46.9891 32.2419 47.5181 30.5379C47.6249 31.271 47.9405 31.9168 47.4451 33.2614C47.0035 34.4748 46.4259 34.7712 46.4259 34.7712C46.4259 34.7712 46.7123 34.7225 47.1344 34.47C47.2073 34.6496 47.1929 34.854 47.3142 34.9264C47.4355 34.9987 47.6006 35.1206 47.6249 35.2371C47.7558 35.0428 47.9596 34.7952 48.023 34.6108C47.9744 34.9948 47.9404 36.6739 48.119 37.5283C48.4931 37.4944 48.8764 37.47 49.1385 36.7952C48.959 37.4556 48.959 37.8534 49.0803 38.4166C49.2793 38.2809 49.4588 38.038 49.4588 38.038L49.4601 38.039Z" fill="#C0993A"/>
<path fill-rule="evenodd" clip-rule="evenodd" d="M36.8469 11.2816C36.8469 11.2816 36.4732 11.4368 35.8373 11.4368C35.284 11.4368 35.4392 11.2234 34.5752 11.2234C33.2453 11.2234 28.5995 11.9914 27.7838 11.9805C27.2546 11.9709 29.5701 12.2087 29.5701 12.2087L35.4879 12.2912L36.677 12.1952L37.1189 11.296L36.8469 11.2816Z" fill="#A88F33"/>
<path fill-rule="evenodd" clip-rule="evenodd" d="M21.5023 22.8496C21.5023 22.8496 20.7449 23.4272 20.4246 23.8691C20.1043 24.311 19.9344 24.6019 19.5702 24.9612C19.6557 24.9645 19.7411 24.953 19.8227 24.9273C19.8227 24.9273 19.8227 25.0233 19.7644 25.0486C19.8148 25.043 19.8657 25.0487 19.9135 25.0653C19.9614 25.0819 20.0049 25.109 20.0409 25.1446C19.934 25.2028 19.6428 25.4944 19.871 25.839C20.0409 26.1011 20.4003 26.1251 20.4003 26.1251C20.4003 26.1251 20.3177 26.3632 20.6624 26.3388C21.4051 26.3049 22.2351 25.9795 22.6185 26.062C23.0025 26.158 23.2207 26.1932 23.4924 26.6643C23.7804 27.1302 24.0313 27.2032 24.0313 27.2032C24.0313 27.2032 24.2012 26.7708 24.1625 26.1254C24.3018 25.7775 24.3791 25.4078 24.3907 25.0332L24.1382 23.174L23.0364 21.7808L21.6092 22.5721L21.5023 22.8486V22.8496Z" fill="#E3C571"/>
<path fill-rule="evenodd" clip-rule="evenodd" d="M22.8566 22.5727C22.8566 22.5727 22.9634 22.8252 23.4102 22.8492C23.3615 22.9561 23.3615 22.9708 23.3762 23.0531C23.3858 23.1356 23.4002 23.2569 23.4002 23.2569C23.4494 23.2331 23.4939 23.2006 23.5314 23.1609C23.5558 23.2678 23.5071 23.4374 23.5314 23.559C23.5465 23.6329 23.5709 23.7047 23.6041 23.7724C23.6112 23.7558 23.6193 23.7397 23.6284 23.7241C23.638 23.6998 23.7244 23.9862 23.9634 24.2041C23.9632 24.1706 23.9715 24.1376 23.9874 24.1081C23.9911 24.169 24.0112 24.2277 24.0457 24.278C24.0278 24.2695 24.0115 24.258 23.9974 24.2441C23.9974 24.2441 24.0214 25.0121 24.1526 25.4092C24.1745 25.3836 24.194 25.3559 24.2108 25.3267C24.2108 25.3027 24.2012 25.5404 24.1769 25.7107C24.143 25.8806 24.1673 26.1183 24.1673 26.1183C24.2548 26.0494 24.351 25.9923 24.4534 25.9484C24.599 25.8899 24.8374 25.7103 24.9826 25.3123C25.0669 25.0868 25.1319 24.8546 25.1769 24.6182C25.2238 24.7085 25.2562 24.8057 25.2729 24.9062C25.2828 25.0275 25.511 24.9644 25.511 24.9644L25.5596 24.4351L25.8476 23.2361L26.1097 22.4934L27.3718 20.5276L29.6521 18.7715L31.6425 19.2278L33.3219 16.9462L30.4287 15.2083L27.6908 15.4947L25.206 18.9363L23.2159 22.0579L22.8566 22.5724V22.5727Z" fill="#D8B65B"/>
<path fill-rule="evenodd" clip-rule="evenodd" d="M37.1964 17.5924C37.1964 17.5924 37.0265 17.6263 36.5362 17.8804C36.046 18.1344 35.7062 18.2151 35.5167 18.5888C35.3273 18.9626 35.3129 19.2589 35.3129 19.2589C35.3129 19.2589 35.6479 19.1133 35.8421 19.0647C36.046 19.0164 36.2742 19.0308 36.2498 19.1133C36.2265 19.1699 36.1941 19.2223 36.1538 19.2685C36.1538 19.2685 36.5378 19.2589 36.5276 19.4484C36.5174 19.6378 36.4549 19.8464 36.3823 19.9386C36.3093 20.0346 36.0085 20.1767 35.9746 20.2884C35.8921 20.5165 36.0086 20.5261 35.9647 20.7104C35.9308 20.8903 35.7708 21.2397 35.2463 21.8512C34.7074 22.4631 34.4783 22.8951 34.4783 22.8951C34.4783 22.8951 34.2162 22.4048 34.0802 21.9824C33.9842 22.0308 33.4687 22.3172 33.4687 22.3172L32.2745 18.1572L32.2985 17.8804C32.2985 17.8804 32.4053 17.7495 32.4297 17.5066C32.2501 17.4484 32.2258 17.3997 31.9877 17.1719C31.7497 16.944 31.5557 16.6669 31.158 16.4775C31.0997 16.3706 31.0268 16.2253 30.7356 16.1667C30.4444 16.1082 30.2697 16.0602 30.2697 16.0602C30.2697 16.0602 30.4249 16.0016 30.4978 15.8803C30.318 15.9047 30.1727 15.9629 29.7794 15.9533C29.3813 15.9434 29.3375 15.929 29.1193 15.9629C28.901 15.9968 28.6393 16.0941 28.5417 15.7591C28.4348 15.6765 28.2066 15.7495 28.0124 16.0355C27.8181 16.3216 27.7503 16.5501 27.3765 16.6618C27.3503 16.8265 27.2926 16.9847 27.2066 17.1277C27.0997 17.3075 26.9298 17.4871 26.7017 17.754C26.3423 18.1764 26.4005 18.8704 25.8277 19.3997C25.2501 19.9287 25.9237 17.9335 25.9237 17.9335L26.846 15.7255L29.4722 13.1575L33.55 12.881L33.9481 14.993L35.9385 15.6775L37.1958 17.5949L37.1964 17.5924Z" fill="#D3AE4D"/>
<path fill-rule="evenodd" clip-rule="evenodd" d="M37.8421 18.0583L36.1285 15.5875L34.9295 14.665C34.9295 14.665 34.0751 13.0925 34.0168 13.0439C33.9682 13.01 33.1625 12.9226 32.6479 12.8887L32.7439 13.1264C32.8562 13.1629 32.956 13.2302 33.0319 13.3207C33.26 13.5827 33.4056 14.0778 32.8863 14.6071C33.0901 14.6797 33.1743 14.7031 33.3522 14.6797C33.1727 14.8935 32.765 15.3498 32.7407 15.7479C32.7164 16.073 32.9202 16.1699 32.9202 16.1699C32.9202 16.1699 32.6095 16.5293 32.5951 17.1299C32.7418 16.9645 32.9024 16.8118 33.0751 16.6736C33.4344 16.3856 33.9295 16.0618 34.2645 15.8579C34.26 15.9435 34.2715 16.0291 34.2984 16.1104C34.2984 16.1104 34.9244 15.5959 35.4504 15.824C35.6882 15.9309 35.5813 16.2659 35.5813 16.2659C35.5813 16.2659 35.9068 16.1447 36.1349 16.3728C36.3631 16.601 36.6882 17.1882 36.8533 17.4167C36.9259 17.5235 37.1154 17.7274 37.3093 18.0426C37.5743 18.4844 37.7955 18.951 37.9698 19.4359C37.9794 19.2416 38.0184 18.9699 38.3538 18.9699L37.844 18.0573L37.8421 18.0583Z" fill="#CAA13E"/>
<path fill-rule="evenodd" clip-rule="evenodd" d="M12.1529 25.0778C12.1529 25.0778 12.0316 24.7767 12.1529 24.1895C12.2742 23.6023 12.4636 23.3255 12.5267 22.4615C12.5897 21.5975 13.1529 20.5198 13.1529 20.5198L14.711 19.8113L15.8131 20.1121L16.1382 21.5879L14.7449 22.3559C14.7449 22.3559 14.6723 22.681 14.279 22.9431C13.8857 23.2052 13.342 23.409 13.2111 23.6762C13.1329 23.8399 13.0758 24.0128 13.0412 24.1908C13.0412 24.1908 12.6431 24.1082 12.4054 24.3703C12.1529 24.6375 12.1625 24.8753 12.1529 25.0791V25.0778Z" fill="#F4EFC8"/>
<path fill-rule="evenodd" clip-rule="evenodd" d="M15.2985 24.6845C15.2985 24.6845 15.1673 24.7671 15.0704 24.9725C14.9744 24.8173 14.7449 23.8948 14.7353 23.0647C14.7257 22.2346 14.6761 22.0288 14.8681 21.7428C15.0601 21.4567 15.8131 21.1552 15.7062 20.64C15.5993 20.1498 15.1526 19.946 14.6041 20.0868C14.2201 20.1828 13.9344 20.9994 13.5363 21.4071C13.2352 21.7178 12.8761 21.6692 12.7792 21.8391C12.648 22.0672 12.7692 22.2954 12.7305 22.441C12.7206 22.4896 12.5993 22.7517 12.3808 23.0672C11.9392 23.7031 11.1916 24.6013 11.0944 25.4071C11.1283 24.9508 11.1043 24.9412 11.2256 24.4362L11.1526 24.3149L11.6326 22.7421L11.9433 21.4461L12.6377 19.2759L13.8608 17.0577L15.0502 15.7274L16.288 15.81L16.4336 17.6692L17.1424 21.1597L18.6326 22.9946L16.2441 24.602L15.2976 24.6845H15.2985Z" fill="#EBCC73"/>
<path fill-rule="evenodd" clip-rule="evenodd" d="M16.0412 25.3441C16.0412 25.3441 15.8374 25.3928 15.7644 25.354C15.6914 25.3153 15.6191 25.2715 15.6431 25.2228C15.6671 25.1742 15.7983 25.092 15.7983 25.0529C15.801 25.0176 15.7898 24.9827 15.7672 24.9555C15.7446 24.9283 15.7122 24.911 15.677 24.9073C15.5654 24.8929 15.5314 24.9655 15.5314 24.9655C15.5314 24.9655 15.4246 24.8833 15.3375 24.8695C15.389 24.8632 15.4408 24.8599 15.4927 24.8596C15.3586 24.7989 15.2163 24.758 15.0703 24.7383C15.1916 24.6657 15.4297 24.4519 15.5849 24.4519C15.7401 24.4519 15.8374 24.4279 15.813 24.3454C15.7887 24.2628 15.6674 24.1415 15.5366 24.0929C15.5849 24.0347 15.6191 23.9473 15.5026 23.7089C15.381 23.4711 15.4297 23.3108 15.4687 23.2529C15.5026 23.1799 15.6239 23.0491 15.6822 22.9665C15.7404 22.8839 15.789 22.7723 15.886 22.714C15.9346 22.6801 16.0898 22.618 16.2454 22.5588C16.4153 22.5006 16.5561 22.4276 16.653 22.5006C16.7599 22.5732 16.7113 22.6705 16.7113 22.6705C16.7113 22.6705 17.0463 22.5489 17.3471 22.7044C17.6482 22.8497 18.3814 22.9422 18.3814 22.9422L18.6441 23.4715L16.9062 24.9617L16.1878 25.3211L16.0422 25.3451L16.0412 25.3441Z" fill="#E5C66B"/>
<path fill-rule="evenodd" clip-rule="evenodd" d="M18.4539 22.9078C18.4539 22.9078 17.915 23.2671 17.7937 23.398C17.8663 23.4079 17.9876 23.4566 17.939 23.5292C17.8807 23.6019 17.5313 23.8543 17.3371 24.0924C17.1332 24.3302 16.939 24.6313 16.8711 24.7769C16.7985 24.9078 16.2449 25.2915 16.0558 25.3398C16.4539 25.3398 17.2548 24.8495 17.5556 24.8495C17.546 24.9951 17.6382 25.1603 17.8081 25.1747C17.978 25.1891 18.4683 25.2815 19.1284 24.8739C19.7886 24.4758 19.5703 24.1795 19.8468 23.9855C20.3761 23.6358 20.5895 23.3251 20.8807 23.1311C21.1719 22.9372 21.3227 22.8931 21.3227 22.8931C21.3227 22.8931 21.3323 22.7475 21.4187 22.7622C21.4423 22.7649 21.4648 22.774 21.4836 22.7886C21.5024 22.8031 21.517 22.8225 21.5255 22.8447C21.5255 22.8447 22.0305 22.4854 22.6775 22.3884C22.6625 22.3817 22.6504 22.3696 22.6436 22.3545C22.6436 22.3545 22.6919 22.3302 22.7019 22.3059C22.7019 22.3059 22.7358 22.2572 22.7601 22.2815C22.7844 22.3059 22.8183 22.4854 22.867 22.5583C22.9739 22.5097 23.1777 22.0534 23.1777 22.0534L23.6683 20.6505V19.3689L23.2843 19.4419L20.4043 20.6649L18.6564 22.4758L18.4526 22.9078H18.4539Z" fill="#E6BD62"/>
<path fill-rule="evenodd" clip-rule="evenodd" d="M26.7449 16.6214C26.9006 16.5836 27.05 16.523 27.1881 16.4416C27.1298 16.5971 27.1298 16.767 26.8773 17.136C26.6249 17.5049 26.6153 17.5584 26.4114 17.9417C26.2076 18.3398 26.1833 18.9126 25.989 19.1648C26.0761 19.1225 26.1695 19.0947 26.2655 19.0825C26.2655 19.0825 26.0716 19.2525 25.989 19.432C25.9065 19.6115 25.7609 19.9853 25.4018 20.2137C25.0428 20.4422 24.5861 20.5875 24.0959 21.1264C23.6053 21.6553 23.1007 22.3254 22.8479 22.5664C22.9791 22.3382 23.1586 21.8819 23.2073 21.5811C23.2559 21.2803 23.1973 20.9206 23.2799 20.5229C23.3625 20.1251 23.3625 19.8384 23.7599 19.144C24.1573 18.4496 24.8377 16.0371 24.8377 16.0371L26.3036 15.5712L26.7455 16.6198L26.7449 16.6214Z" fill="#B6933F"/>
<path fill-rule="evenodd" clip-rule="evenodd" d="M25.6867 15.7331C25.6867 15.7331 25.2451 16.369 25.1238 16.9322C25.0025 17.4954 25.1139 17.4467 25.0413 17.7235C24.9978 17.8923 24.9978 18.0693 25.0413 18.2381C25.1942 17.9917 25.4036 17.7853 25.6521 17.6359C26.0697 17.3837 26.4096 17.2039 26.6121 16.9904C26.816 16.7623 26.9859 16.3885 27.4275 16.1021C27.248 16.0778 26.9955 15.9952 26.9475 16.0061C27.1273 15.8023 27.6659 15.4915 28.2096 15.1178C28.7484 14.7338 28.7145 14.5789 29.5884 14.1955C29.302 14.2442 29.166 14.1712 28.928 14.1955C29.024 13.9917 29.36 13.8944 29.696 13.5597C30.032 13.225 29.4825 12.7296 29.4825 12.7296L26.9225 14.2781L25.6848 15.7344L25.6867 15.7331Z" fill="#C49937"/>
<path fill-rule="evenodd" clip-rule="evenodd" d="M18.7401 14.5776L18.7984 14.1117L19.5315 12.937L20.2985 10.8739V8.05346L20.2403 6.42242L20.3616 5.35427L20.4537 5.01475L20.551 4.88354L21.1769 5.20867L22.0412 6.38338L22.1238 8.65058L21.2838 12.2282L18.8857 14.8448L18.7401 14.5776Z" fill="#DFC068"/>
<path fill-rule="evenodd" clip-rule="evenodd" d="M20.648 4.75227C20.648 4.75227 20.264 4.76219 20.1821 6.35931C20.1002 7.95643 20.0605 8.79611 20.0022 9.58747C19.944 10.3788 19.8083 10.8591 19.7402 11.3254C19.672 11.7916 19.6333 12.4271 19.415 12.8156C19.319 12.9951 19.1139 13.5583 18.6333 13.9807C18.0944 14.4467 17.2893 14.7721 17.1674 14.7964C16.9536 14.8447 15.8711 14.9516 15.4295 15.1945C15.2743 15.2771 15.0071 15.374 14.7111 15.6508C14.1235 16.1798 13.3421 17.1263 12.7789 18.2671C11.9149 19.9711 11.0509 24.7817 11.0509 24.7817L11.2451 24.4566C11.2451 24.4566 11.2695 24.0246 11.7015 23.2671C12.1239 22.51 12.0026 21.6604 12.5898 20.2089C12.8179 19.6556 13.1043 18.9372 13.4538 18.3254C14.0074 17.3302 14.6771 16.4758 15.352 16.0099C16.4538 15.2527 17.6675 15.0876 17.6675 15.0876L18.9734 14.2236C18.9734 14.2236 19.2016 13.782 19.5027 13.2771C19.9248 12.5686 20.4627 11.7772 20.5802 10.6268C20.76 8.92283 20.3277 7.80635 20.352 6.79675C20.3763 5.78715 20.3859 5.04443 20.5901 4.86459C20.7942 4.68475 20.6483 4.75291 20.6483 4.75291L20.648 4.75227Z" fill="#A88F33"/>
<path fill-rule="evenodd" clip-rule="evenodd" d="M20.6479 12.3738C20.6479 12.3738 21.2239 10.9562 21.4875 9.69888C21.5362 9.4464 21.6331 9.19424 21.6575 8.9904C21.7787 7.80096 21.8127 7.31072 21.6575 6.66016C21.5362 6.18016 21.0703 5.74752 20.8274 5.41216C20.5896 5.0624 20.4779 4.93216 20.5266 4.85856C20.5752 4.78496 20.7643 4.66464 20.9487 4.67904C21.1446 4.68474 21.3373 4.73024 21.5151 4.81275C21.6929 4.89527 21.8521 5.01309 21.9829 5.15904C22.3567 5.59104 22.6527 7.05728 22.6527 7.05728L22.964 8.992L23.7554 11.4288L20.6485 12.3757L20.6479 12.3738Z" fill="#C99E3D"/>
<path fill-rule="evenodd" clip-rule="evenodd" d="M26.0605 10.8983C26.0605 10.8983 25.9536 10.9466 25.7597 10.8983C25.7679 10.9775 25.7542 11.0575 25.7199 11.1294C25.6856 11.2014 25.6322 11.2624 25.5654 11.3059C25.3616 11.2234 23.4534 11.3885 23.4534 11.3885C23.4534 11.3885 22.5651 11.233 22.2883 10.0583C22.0944 9.27651 22.4339 8.19907 22.3222 7.49027C22.1523 6.44643 21.9145 6.24227 21.8902 5.91747C21.8659 5.59267 21.8416 5.50979 21.8416 5.30595C21.7347 5.28163 21.6717 5.24771 21.5651 5.24771C21.5408 5.15171 21.5891 5.06787 21.4825 4.89795C21.5408 4.92227 21.9389 4.97091 22.4048 5.41251C22.7888 5.77187 22.7888 5.90275 22.8467 5.97571C22.9193 6.04835 23.5069 6.55171 23.7593 7.05347C24.0118 7.55523 24.5021 9.15523 24.6137 9.41731C24.6477 9.52419 24.7206 9.63107 24.9017 9.87363C25.1833 10.2234 25.5958 10.8016 26.0617 10.8976L26.0605 10.8983Z" fill="#B58634"/>
<path fill-rule="evenodd" clip-rule="evenodd" d="M22.9152 6C23.2092 6.47504 23.4734 6.96794 23.7062 7.47584C23.9926 8.12128 24.1625 8.65056 24.5219 9.08256C24.3276 8.51968 23.983 7.4128 23.7792 7.01952C23.551 6.60352 23.0851 6.15552 22.9152 6.00032V6Z" fill="#A88F33"/>
<path fill-rule="evenodd" clip-rule="evenodd" d="M19.6141 13.9808C19.6141 13.9808 19.1238 14.1021 18.2112 14.5827C17.9101 14.7379 17.624 14.8688 17.3472 14.9904C16.6282 15.3155 15.857 15.616 15.2451 15.7817C15.2938 15.84 15.3178 15.864 15.3178 15.864C15.3178 15.864 15.3178 16.1021 15.449 16.2377C15.3763 16.3107 14.4051 16.9709 14.6918 19.1795C14.8858 19.1069 15.1139 19.0096 15.1478 19.0096C15.2064 19.0195 15.2208 19.1795 15.2934 19.1795C15.3661 19.1795 15.6042 19.0835 15.8566 18.7571C15.847 18.8883 15.7014 20.2086 16.4829 21.097C16.6285 20.927 16.9974 20.3638 16.9974 20.3638L17.007 20.1843C17.007 20.1843 17.041 19.5581 17.2451 18.9853C17.4493 18.4125 17.847 17.9901 17.847 17.9901L19.9242 15.024L19.6134 13.9805L19.6141 13.9808Z" fill="#E6C367"/>
<path fill-rule="evenodd" clip-rule="evenodd" d="M17.6722 18.3361C17.5771 18.4033 17.4723 18.4557 17.3615 18.4913C17.3276 18.37 17.2789 17.9524 17.5653 17.5448C17.9004 17.0542 18.6332 16.4184 18.837 15.9128C18.9682 15.5873 18.91 14.772 20.0751 13.7281C21.2402 12.6843 21.6962 12.3252 21.6962 12.3252L23.5797 11.3787L25.8953 12.2913L24.7449 16.8001L23.8517 18.9121L20.2997 18.2424L17.6719 18.3361H17.6722Z" fill="#DCBA5A"/>
<path fill-rule="evenodd" clip-rule="evenodd" d="M19.0281 17.1117L19.47 16.5584V16.1651C19.47 16.1651 19.9602 16.0339 20.4892 15.4951C21.0182 14.9562 21.7513 13.9223 22.397 13.9853C23.0428 14.0583 23.1058 15.3882 23.1302 15.7623C23.1545 16.1363 23.237 16.9853 23.3679 17.4419C23.5135 17.8983 21.7951 19.6263 21.7951 19.6263L20.6281 20.5146L19.0281 17.1117Z" fill="#E9CE77"/>
<path fill-rule="evenodd" clip-rule="evenodd" d="M20.3954 21.7184C20.3954 21.7184 20.7547 21.1552 20.4914 21.0339C20.6466 20.6845 20.933 20.3155 20.933 20.3155C20.933 20.3155 21.1368 19.8109 21.797 19.1894C22.4571 18.568 22.8651 18.1552 22.972 17.7379C23.0379 17.466 23.0737 17.1876 23.0789 16.9078C23.1503 16.9661 23.2266 17.0181 23.307 17.063C23.4139 17.1117 23.9186 17.529 23.8459 18.369C23.7733 19.209 23.4619 19.5584 23.4619 19.5584C23.4619 19.5584 23.1611 19.8592 22.9477 20.0147C22.7192 20.1699 22.637 20.3494 22.2533 20.3642C22.2927 20.3328 22.3371 20.3082 22.3845 20.2912C22.3845 20.2912 21.9864 20.2429 21.7727 20.4368C21.5589 20.6307 21.1045 21.2282 20.8763 21.408C20.6482 21.5536 20.3963 21.7187 20.3963 21.7187L20.3954 21.7184Z" fill="#CDAE50"/>
<path fill-rule="evenodd" clip-rule="evenodd" d="M36.5362 12.2766C35.9627 12.0676 35.36 11.9497 34.75 11.9272C33.7305 11.8932 32.2402 11.9515 30.7791 11.9611C29.2063 11.9707 27.7791 11.4222 25.7987 11.3252C25.4735 11.131 24.6467 10.2814 22.0656 12.0824C22.2208 12.0728 23.9395 11.6843 24.5363 12.4321C25.1382 13.1748 24.9683 14.4369 24.886 14.7377C24.7305 15.4078 24.2255 16.3835 24.022 17.068C23.8185 17.7525 23.8665 18.1121 23.7209 18.5921C23.5753 19.0721 23.255 19.3105 23.4441 19.8638C23.6966 19.7086 23.8281 19.7086 24.2499 18.7621C24.6716 17.8155 24.5849 17.1406 25.2841 16.3396C25.9686 15.5339 27.1081 14.4318 27.5414 14.155C27.9747 13.8782 31.415 12.092 35.0172 13.796C35.886 13.7038 36.5366 12.2763 36.5366 12.2763L36.5362 12.2766Z" fill="#D2A83E"/>
<path fill-rule="evenodd" clip-rule="evenodd" d="M23.5167 11.6159C23.5132 11.5795 23.5051 11.5436 23.4927 11.5091C23.459 11.4381 23.4148 11.3726 23.3615 11.3148C23.3615 11.3148 22.5071 11.1596 22.0751 11.2079C21.3177 11.2905 20.6332 12.2275 20.3129 12.7081C19.9926 13.1887 19.5945 13.9311 19.1625 14.3148C19.1672 14.2774 19.1586 14.2396 19.1382 14.2079C19.1382 14.2079 19.1625 14.2419 19.1142 14.2905C19.0659 14.3391 19.0655 14.3631 19.0899 14.3865L19.1628 14.4591C19.1868 14.4591 19.8569 14.158 20.7695 13.3071C21.7404 12.4188 22.4831 11.9631 22.8716 11.807C23.0788 11.7189 23.2953 11.6548 23.517 11.6159H23.5167Z" fill="#C29637"/>
<path fill-rule="evenodd" clip-rule="evenodd" d="M40.0898 7.96606C40.0898 7.96606 39.9343 8.15998 39.7401 8.37374C39.3081 8.83007 38.7449 9.34431 38.2642 9.87359C37.8082 10.3785 37.2937 10.7718 36.7158 11.432C36.1378 12.0922 35.4678 12.825 35.2982 13.0387C35.143 13.2525 35.0217 13.6019 35.0217 13.7814C34.9391 13.7232 34.8422 13.6602 34.8422 13.6602C34.883 13.7364 34.9318 13.808 34.9878 13.8739C35.109 14.0438 35.2982 14.2579 35.3954 14.3885C35.5148 14.5547 35.6005 14.7426 35.6476 14.9418C35.7058 14.9514 36.0796 15.0243 36.5458 14.2573C37.0121 13.4902 37.6233 12.6506 37.6233 12.6506L38.5942 11.2086L39.206 9.98559L39.974 8.61662L40.0908 7.96606H40.0898Z" fill="#AC8132"/>
<path fill-rule="evenodd" clip-rule="evenodd" d="M41.0851 6.9856C41.0851 6.9856 40.4976 7.4656 40.2695 7.7536C40.0413 8.0416 39.5015 8.79745 39.5015 8.79745L39.6957 8.77313L40.6813 7.89952L41.0653 7.21504L41.0848 6.98688L41.0851 6.9856Z" fill="#A88F33"/>
<path fill-rule="evenodd" clip-rule="evenodd" d="M40.9052 45.5632C40.9052 45.5632 40.8955 45.1651 41.1189 44.9274C41.3471 44.6893 41.9247 44.3399 42.4879 43.0291C43.0511 41.7184 43.1138 41.4224 43.1138 41.4224C43.1138 41.4224 42.1042 42.2864 41.4818 42.4903C41.6274 42.1891 41.7099 41.9757 41.7829 41.8202C41.7003 41.7475 41.3509 41.665 41.317 41.6263C41.5109 41.432 41.6178 40.9562 42.0111 40.6407C42.516 40.2567 43.4383 39.5968 44.1551 39.0087C44.8719 38.4205 46.2812 37.0525 46.461 36.6544C46.5679 36.8096 46.5919 36.9066 46.5919 36.9066C46.5919 36.9066 45.8834 37.8291 45.5144 38.4163C45.189 38.9213 45.2133 39.2077 45.2133 39.2077L45.8834 38.9197C45.8834 38.9197 46.0773 39.6381 45.1989 40.7306C45.5829 40.585 45.7378 40.6723 45.956 40.5507C45.5967 40.7792 45.1016 41.0899 44.6357 41.944C44.1794 42.7984 43.558 43.7936 42.5096 44.4147C41.4901 45.0701 40.9026 45.5603 40.9026 45.5603L40.9052 45.5632Z" fill="#A67A2E"/>
<path fill-rule="evenodd" clip-rule="evenodd" d="M38.2742 12.7818C38.2742 12.7818 37.8761 13.6115 37.8179 14.2573C37.8083 14.4128 37.7692 14.5341 37.7692 14.7136C37.7596 15.2912 37.8031 15.937 37.6732 16.2378C37.6246 16.1165 37.6003 16.0339 37.5516 15.9856C37.479 16.1894 37.3478 16.8253 37.2409 17.063C37.1926 16.9078 37.0857 16.369 37.0956 15.7331C37.1055 15.0973 37.1196 14.9757 37.1196 14.8448C37.0956 15.0387 36.9644 15.3011 36.9158 15.4563C36.8431 15.3254 36.7606 15.1555 36.6633 15.0147C36.6051 15.1107 36.5324 15.2525 36.4694 15.3254C36.4595 15.2672 36.4355 15.1117 36.4207 14.8934C36.4111 14.641 36.3964 14.3158 36.4111 14.2477C36.4351 14.1168 36.6393 13.6022 37.0713 13.1312C37.5859 12.568 38.1151 11.4858 38.2703 11.1507C38.4255 10.8157 39.0857 9.42273 39.0857 9.42273H39.5906L38.8575 11.0925C38.8575 11.0925 38.4159 12.0051 38.1878 12.3405C37.9596 12.6758 37.479 13.6368 37.2652 14.0106C37.4204 13.8067 37.5516 13.6998 37.7071 13.5056C37.8575 13.3696 38.2748 12.7824 38.2748 12.7824L38.2742 12.7818Z" fill="#8C6228"/>
<path fill-rule="evenodd" clip-rule="evenodd" d="M41.0947 6.92212C41.0122 7.17598 40.8819 7.4117 40.7107 7.61652C40.4096 7.97588 39.7638 8.4562 39.4486 8.83956C39.1606 9.21332 38.5846 10.2328 38.8464 11.4415C38.9424 11.1794 39.1232 10.66 39.6038 10.0725C40.0845 9.485 40.599 8.81044 40.8518 8.28628C41.104 7.757 41.1379 7.33972 41.1379 7.33972L41.2339 7.21844L41.1757 6.94164L41.0931 6.92212H41.0947Z" fill="#CBA94C"/>
<path fill-rule="evenodd" clip-rule="evenodd" d="M50.9247 39.1213C50.9247 39.1213 50.7305 38.5923 50.6723 38.1117C50.614 37.631 50.7683 37.5357 50.5897 36.9856C50.4828 36.6505 50.2889 36.6976 50.2403 36.6505C50.1916 36.6035 50.1577 36.0973 50.1673 35.8205C50.1769 35.5437 50.1577 35.1846 50.1091 35.0291C50.0364 34.9709 49.9878 34.9222 49.8809 34.5632C49.7596 34.2038 49.7014 34.0243 49.6431 33.9177C49.5849 33.8112 49.4146 33.7139 49.4146 33.607C49.4146 33.3933 49.6089 33.2819 49.6089 33.223C49.5993 33.1017 49.4537 33.199 49.4146 33.1648C49.3663 33.1065 49.5363 32.7571 49.4732 32.7085C49.4489 32.6845 49.279 32.8883 49.2351 32.8301C49.1865 32.7715 49.1282 32.1939 49.0409 31.8105C48.9586 31.4368 48.871 31.1651 48.8614 31.0534C48.8518 30.9465 48.1913 29.063 48.0313 28.6067C47.9023 28.2211 47.7938 27.829 47.7062 27.432C47.6575 27.2038 47.6236 26.7376 47.5993 26.7862C47.575 26.8349 47.5897 27.0726 47.5506 27.063C47.5167 27.0531 47.3954 26.2233 47.3567 26.0921C47.3228 25.9609 47.1186 25.5161 47.0687 25.1942C47.0201 24.8688 46.9135 24.0192 46.8406 23.4416C46.7676 22.864 46.7337 22.6262 46.7337 22.4816C46.7456 22.1278 46.7261 21.7737 46.6754 21.4233C46.5794 20.8115 46.3874 20.0688 46.2191 19.6371C45.894 18.8214 45.0297 16.7341 44.8751 16.2147C44.8751 16.0835 45.045 16.1565 45.045 16.1565C45.045 16.1565 45.4671 17.2147 45.7778 18.0301C46.079 18.8457 46.3654 19.5641 46.4383 19.6371C46.4966 19.7097 46.9529 20.5107 47.1567 21.8214C47.3606 23.1321 47.4332 24.3408 47.5548 25.1465C47.613 25.5305 47.6617 25.9379 47.783 26.3456C47.9138 26.7875 48.1177 27.2438 48.3849 27.9427C48.613 28.5302 48.783 29.0205 48.8751 29.4429C48.982 29.9817 48.982 30.3894 49.045 30.6566C49.1036 30.8848 49.1906 31.3408 49.3948 32.0006C49.599 32.6605 49.8994 33.5104 50.1033 34.0393C50.5017 35.0976 50.6793 35.9811 50.7394 36.4521C50.7926 36.9376 50.9724 38.6173 50.9238 39.1219L50.9247 39.1213Z" fill="#A88F33"/>
<path fill-rule="evenodd" clip-rule="evenodd" d="M41.119 6.86404L41.0946 6.92228C41.0946 6.92228 41.1673 6.9466 41.1529 7.04388C41.1539 7.17697 41.1458 7.30998 41.1286 7.44196C41.1046 7.61188 41.0559 7.74276 41.0463 7.84964C41.0463 8.0778 41.0802 8.33988 40.7583 8.99044C40.6623 9.16996 40.6031 9.32516 40.5545 9.43204C40.4332 9.69412 40.4089 9.73316 40.302 9.85444C40.4719 9.75844 41.0838 9.37444 41.3941 9.43204C41.1807 9.55332 40.8553 9.7914 40.6514 10.1021C40.7001 10.1117 40.9039 10.1508 41.2274 10.1021C41.7663 10.0196 42.3682 9.82532 42.8972 9.86404C43.4751 9.89796 43.2469 9.16996 43.2469 9.16996L42.5801 7.70404L41.318 6.81604L41.119 6.86436V6.86404Z" fill="#BE9C44"/>
<path fill-rule="evenodd" clip-rule="evenodd" d="M44.4102 17.8448C44.4102 17.8448 43.847 17.2816 43.6188 15.3488C43.3907 13.4071 43.4393 10.5488 43.4393 10.5488L42.983 9.43237C42.983 9.43237 42.887 8.68965 42.6479 8.41317C42.4089 8.13669 41.9395 7.67045 41.7257 7.44229C41.5119 7.21413 41.2694 6.90341 41.1238 6.85477C41.1964 6.73349 41.5219 6.04901 42.7692 6.03941C44.0166 6.02981 44.4012 6.72389 44.5315 6.97637C44.6617 7.22885 45.2499 8.32037 45.4681 10.4004C45.6719 12.4778 45.6819 12.6333 45.6479 13.3517C45.6236 13.7498 45.4924 14.672 45.2639 15.6573C45.0553 16.4925 44.8271 17.4247 44.4095 17.8468L44.4102 17.8448Z" fill="#A17C34"/>
<path fill-rule="evenodd" clip-rule="evenodd" d="M42.644 19.5002C42.8317 19.5137 43.0192 19.4714 43.1829 19.3786C43.3624 19.369 44.013 19.4515 44.5129 18.8157C44.5468 18.961 44.6345 19.3546 44.406 19.704C44.5276 19.5824 44.7071 19.5341 44.7314 19.5002C44.741 19.6797 44.911 20.233 44.1925 21.5776C44.3865 21.3641 44.6146 21.3737 44.8185 21.3494C44.8284 21.6019 44.9641 22.4512 44.605 22.9078C44.3673 23.2185 43.9788 23.1213 43.9788 23.1213C43.9845 23.0534 43.9845 22.9853 43.9788 22.9174C43.9692 22.7862 43.9205 22.6553 43.9548 22.568C43.7671 22.4822 43.5961 22.3638 43.4498 22.2182C43.0274 21.8201 42.4789 21.1408 42.4402 20.6358C42.3916 20.0726 42.8965 19.9514 42.8965 19.9514C42.8542 19.9135 42.8181 19.8692 42.7896 19.8202C42.7653 19.7379 42.741 19.6067 42.644 19.5002Z" fill="#8C6228"/>
<path fill-rule="evenodd" clip-rule="evenodd" d="M38.9001 13.3932C38.9001 13.3932 38.8758 13.3593 38.7449 13.5145C38.7692 13.3593 38.7935 13.2133 38.8031 13.0725C38.8651 12.9422 38.9452 12.8213 39.0412 12.7135C38.9682 12.8588 38.9196 12.99 38.9196 12.99C38.9196 12.99 39.0994 12.6549 39.3615 12.4511C39.541 12.3055 39.7692 12.2377 39.8661 12.1017C39.973 11.9561 39.9487 11.9317 39.973 11.9074C39.973 11.9074 40.2111 11.7522 40.5753 11.2956C40.6236 11.2373 40.6965 11.1743 40.7452 11.1161C40.8274 11.0821 41.0217 10.9948 41.2498 10.878C41.4879 10.7471 41.7548 10.5676 41.9199 10.494C42.245 10.3484 42.59 10.3631 42.75 10.1346C42.8712 10.1007 43.0021 9.73655 42.9781 9.42615C43.1576 9.49879 44.0799 10.0716 44.3957 11.3241C44.6239 12.2124 44.2159 13.5813 44.046 14.2418C43.876 14.9023 43.852 15.3922 43.614 15.693C43.3128 16.0914 42.3423 16.653 42.1042 16.9311C41.9004 17.1593 41.2889 17.7369 41.3129 18.1541C41.3372 18.4649 41.7205 18.6341 41.8034 18.693C41.8863 18.7519 41.8857 18.8242 42.0412 18.789C42.1967 18.7538 42.2546 18.6821 42.318 18.6821C42.3906 18.6917 42.3906 18.7065 42.4245 18.7065C42.4491 18.7057 42.4736 18.7024 42.4975 18.6965C42.4975 18.6965 42.4732 19.1385 41.4393 19.2725C41.3663 19.2825 41.2937 19.3065 41.2012 19.3212C41.3228 19.2629 41.3954 19.2629 41.5266 19.0834C41.381 19.0591 40.9634 19.0348 40.8565 19.0009C40.8905 18.9426 41.0021 18.7871 41.0943 18.7145C41.1769 18.6418 41.0847 18.6185 41.0121 18.6562C40.887 18.7413 40.767 18.8336 40.6527 18.9327C40.5314 19.0396 40.4245 19.1852 40.2303 19.3167C40.1721 19.1225 40.1817 18.7535 40.4101 18.4866C40.3516 18.4962 40.2399 18.6661 40.1333 18.6322C40.1141 18.4552 40.1256 18.2761 40.1673 18.1029C40.2255 17.8844 40.541 17.501 40.541 17.501L42.0652 14.7775L42.3903 12.7145L38.9001 13.3925V13.3932Z" fill="#92723A"/>
<path fill-rule="evenodd" clip-rule="evenodd" d="M38.8179 13.5097C38.8179 13.5097 38.7354 13.5679 38.9005 13.6796C38.8762 13.7135 38.8179 13.8348 38.745 13.9174C38.6627 14.0134 38.575 14.0729 38.5411 14.1554C38.4685 14.3254 38.4102 14.4418 38.4102 14.5148C38.4102 14.5878 38.3859 15.0537 38.1821 15.3545C38.1091 15.4614 38.0266 15.6409 37.9683 15.7622C37.847 15.9756 37.7402 16.1462 37.7158 16.2422C37.6675 16.4121 37.6336 16.878 37.6336 16.878C37.6336 16.878 37.7405 16.7468 37.7792 16.6985C37.7206 16.8198 37.6576 16.9506 37.5654 17.0479C37.6237 16.9993 37.7936 16.878 38.08 16.6255C38.4781 16.2908 39.0995 15.7276 39.857 15.2815C39.6285 15.3641 39.4346 15.3641 39.2794 15.3884C39.4007 15.2671 40.4928 13.9855 41.0656 13.8642C41.1004 13.8201 41.1177 13.7648 41.1143 13.7087L40.6237 13.6604L39.6285 13.8738L39.4832 13.1058L38.8179 13.5087V13.5097Z" fill="#B18E3E"/>
<path fill-rule="evenodd" clip-rule="evenodd" d="M40.4007 17.8787C40.4007 17.8787 40.2695 18.0096 40.1482 18.3351C40.0548 18.2376 39.9747 18.1281 39.9101 18.0096C39.7306 17.7088 39.4541 17.3251 38.8083 17.5437C38.7987 17.3399 38.784 17.233 38.8083 17.0874C38.9152 17.0634 39.2403 16.8013 39.5655 16.4176C39.7939 16.1555 40.0074 15.8544 40.153 15.4711C40.249 15.3981 40.4151 15.2768 40.633 15.136C40.9437 14.9226 41.3175 14.6311 41.3757 14.3059C41.2301 14.3642 40.9194 14.5098 40.4531 14.4858C40.633 14.4032 40.9095 14.3159 40.8755 13.9565C40.9485 13.9079 41.0067 13.8739 41.0067 13.8739C40.952 13.8557 40.8945 13.8475 40.8368 13.8496C40.8269 13.8157 40.8125 13.7674 40.7299 13.7914C40.6474 13.8154 40.6339 13.8157 40.623 13.8496C40.5891 13.8595 40.4774 13.8496 40.3949 13.9082C40.3123 13.9667 40.0842 14.1603 39.9968 14.1943C40.0307 14.136 40.079 14.049 40.079 14.049C40.079 14.049 39.8413 14.073 39.6714 14.145C39.3606 14.2519 39.0016 14.4461 38.6375 14.6352C38.6714 14.577 38.6861 14.5392 38.7101 14.5283C38.7341 14.5175 38.7927 14.5043 38.7927 14.4944C38.7927 14.4845 38.7686 14.3984 38.783 14.3635C38.8919 14.1329 39.0204 13.912 39.167 13.7034C39.337 13.4749 39.3709 13.1498 39.3709 13.1498L40.1136 12.776L42.201 12.296L43.5555 12.3786L43.3856 13.3155L42.5856 14.9514L41.9011 16.4416L41.1194 17.3546L40.401 17.8787H40.4007Z" fill="#543E26"/>
<path fill-rule="evenodd" clip-rule="evenodd" d="M43.7839 13.824C43.7839 13.824 42.9682 14.8336 42.74 14.9891C42.8856 14.6784 43.7839 12.8288 44.109 12.3142C44.0364 12.256 43.9391 12.256 44.1672 11.3542C43.9733 11.8102 43.9052 12.0483 43.7452 12.1696C43.5852 12.2909 43.5653 12.2522 43.4572 12.2522C43.4776 12.2152 43.486 12.1728 43.4812 12.1309C43.4812 12.1309 42.7967 12.0483 42.3292 12.0483C41.8616 12.0483 40.9362 12.3008 40.4213 12.5046C40.0137 12.6746 39.7855 12.6746 39.6399 12.7811C39.4943 12.9024 39.4117 13.0336 39.3388 13.0675C39.2805 13.1014 39.0041 13.1888 38.9407 13.281C38.8825 13.377 38.7855 13.4848 38.7855 13.5091C38.7855 13.5334 38.7612 13.5677 38.8341 13.543C38.8581 13.5334 39.038 13.4362 39.2418 13.3149C39.5183 13.1597 39.8533 12.9802 40.0962 12.8733C40.7903 12.5965 41.0089 12.6451 41.3192 12.5869C41.6444 12.5286 42.1106 12.3926 42.421 12.3926C42.7317 12.383 43.3192 12.3926 43.4552 12.417C43.397 12.4656 43.3484 12.5238 43.3727 12.7277C43.3727 12.7859 43.324 12.849 43.2767 12.9898C43.1314 13.3878 42.8546 14.048 42.7007 14.383C42.4872 14.839 42.2447 15.2227 42.1247 15.4605C42.0047 15.6982 41.7407 16.3245 41.4792 16.6595C41.2178 16.9946 41.0812 17.1984 40.9993 17.2714C40.9173 17.3443 40.3292 17.776 40.373 17.9315C40.4799 17.8976 41.1548 17.6435 41.6447 17.0918C42.1346 16.5402 42.2322 16.2035 42.6156 15.9024C42.9989 15.6013 43.3 15.0966 43.4796 14.6794C43.63 14.2909 43.596 14.1696 43.7852 13.825L43.7839 13.824Z" fill="#806031"/>
<path fill-rule="evenodd" clip-rule="evenodd" d="M26.2062 21.3593C26.2062 21.3593 26.0993 21.8009 25.8564 22.0194C25.6187 22.2332 25.1963 22.4175 25.148 22.7769C25.0897 23.1359 25.5704 23.3158 25.5704 23.3158C25.5704 23.3158 25.308 23.7478 25.308 24.0729C25.308 24.4079 25.2984 24.471 25.3323 24.7913C25.2938 24.8161 25.261 24.8488 25.2363 24.8873C25.2363 24.8873 25.2603 25.198 25.4984 25.3919C25.7364 25.5858 25.94 25.7026 26.0612 25.654C26.0798 25.6936 26.096 25.7342 26.1099 25.7756C26.1099 25.7756 26.2897 25.3193 26.411 24.9212C26.5323 24.5135 26.6392 24.5714 26.6875 24.023C26.7358 23.4745 27.2635 22.5327 27.2635 22.5327L27.6235 21.7279L27.0363 21.2716L26.2062 21.359V21.3593Z" fill="#B6903C"/>
<path fill-rule="evenodd" clip-rule="evenodd" d="M27.2985 22.1504C27.1774 22.2747 27.0656 22.4077 26.9641 22.5485C26.8089 22.7622 26.6876 22.9561 26.4595 23.039C26.2313 23.1219 26.0857 23.1213 26.1001 23.3498C26.1145 23.5782 26.3283 23.6749 26.4495 23.7913C26.5807 23.9126 26.6876 24.1165 26.6294 24.345C26.702 24.311 26.8332 24.272 26.9545 24.0099C27.0758 23.7478 27.9241 22.1507 27.9241 22.1507H27.2985V22.1504Z" fill="#685026"/>
<path fill-rule="evenodd" clip-rule="evenodd" d="M30.6441 18.4659C30.6441 18.4659 30.7167 18.272 30.6441 18.1312C30.5711 17.9856 30.1295 17.9369 29.911 17.7718C29.6828 17.6019 29.406 17.4838 29.1779 17.5584C29.2118 17.4758 29.3478 17.296 29.2361 17.2573C29.1292 17.2233 28.7315 17.4029 28.6246 17.4854C28.5177 17.568 28.2748 17.6649 28.2265 17.7235C28.1782 17.7821 28.0953 17.8934 28.0467 17.8448C27.998 17.8109 27.974 17.7235 27.8915 17.7718C27.8089 17.8201 27.4115 18.1456 27.3382 18.335C27.2649 18.5245 27.1001 18.9469 26.6051 19.4272C26.11 19.9075 25.8963 20.2185 26.0419 20.3981C26.1875 20.5776 26.2556 20.4467 26.2799 20.6019C26.2987 20.7543 26.2904 20.9087 26.2556 21.0582C26.1974 21.3107 26.1004 21.5485 26.2313 21.5971C26.5663 21.704 26.8918 21.5011 26.9644 21.5632C27.11 21.6941 26.8819 22.1651 27.2265 22.2573C27.5763 22.3533 27.9209 22.1747 27.9209 22.1747L29.1926 21.4902L30.4159 20.8448L31.0419 19.6067L30.7062 18.5728L30.6422 18.4659H30.6441Z" fill="#D4B968"/>
<path fill-rule="evenodd" clip-rule="evenodd" d="M29.4441 21.4224C29.4441 21.4224 29.2304 21.0973 29.4928 20.8106C29.7552 20.5239 30.1286 20.4029 30.2742 20.2234C30.2465 20.1892 30.2093 20.164 30.1673 20.1508C30.264 19.9778 30.4114 19.8387 30.5897 19.7524C30.5171 19.6797 30.4198 19.6215 30.3133 19.6215C30.0752 19.6215 29.9293 19.7671 29.711 19.7671C29.4976 19.7671 29.4733 19.6602 29.4733 19.6602C29.4733 19.6602 29.8326 19.6263 29.7984 19.466C29.7645 19.296 29.7024 19.296 29.7024 19.296C29.7024 19.296 30.3965 19.008 30.5177 18.8544C30.639 18.7008 30.6246 18.5194 30.6489 18.4468C30.7312 18.4468 31.2118 18.1943 31.406 18.3012C31.6003 18.408 31.4643 18.6992 31.4643 18.6992C31.4643 18.6992 32.0521 18.2573 32.3516 17.8241C32.6137 17.8484 32.7356 17.6445 32.9276 17.6445C33.1657 17.6445 33.5395 17.9696 33.6121 18.6637C33.6608 19.0618 33.7334 19.29 33.6608 19.994C33.6268 20.392 33.6364 21.242 33.7568 21.6637C33.839 21.9988 34.0332 21.9648 34.0332 21.9648C34.0034 22.0669 33.9444 22.1581 33.8633 22.2269C33.7321 22.3482 33.7177 22.6688 33.7321 22.7901C33.7515 22.8788 33.7758 22.9663 33.8051 23.0522C33.8051 23.0522 33.6499 23.2317 33.6108 23.3533C33.5769 23.4746 33.4169 23.5572 33.3001 23.5572C33.1833 23.5572 33.2419 23.5472 33.0867 23.5572C32.9315 23.5671 32.8828 23.5911 32.7856 23.5572C32.6883 23.5232 32.6156 23.4842 32.6547 23.1732C32.6886 22.8624 31.4556 22.1392 31.4556 22.1392L29.4397 21.4208L29.4441 21.4224Z" fill="#CCA849"/>
<path fill-rule="evenodd" clip-rule="evenodd" d="M27.1286 24.4902C27.1286 24.4902 27.5702 25.0778 29.3858 25.0778C30.2498 25.0778 30.551 24.9952 30.7298 24.9466C30.9241 24.8979 31.6521 24.6118 32.3852 23.7475C33.0454 22.9661 32.8998 22.6458 32.8998 22.6458L32.5158 22.5875L31.2678 22.7574L27.575 24.3302L27.127 24.4902H27.1286Z" fill="#585136"/>
<path fill-rule="evenodd" clip-rule="evenodd" d="M28.4828 24.6359C28.4828 24.6359 26.91 24.9856 26.91 23.9904C26.91 23.0195 27.8809 22 28.1238 21.8205C28.3763 21.6407 28.9782 21.4365 28.9782 21.4365H30.4297L30.7062 22.1696L30.5849 23.752L28.4828 24.6355V24.6359Z" fill="#252211"/>
<path fill-rule="evenodd" clip-rule="evenodd" d="M29.9344 21.7331C29.9344 21.7331 29.6336 21.4563 28.9491 21.8291C28.2647 22.2019 27.7111 22.9811 27.6771 23.6887C27.6432 24.3146 28.1917 24.7808 29.0461 24.8051C29.6819 24.8291 30.0656 24.7565 30.2599 24.7091C30.2112 24.6509 29.9588 24.3354 29.9588 24.3354L29.9348 21.7334L29.9344 21.7331Z" fill="#C3B378"/>
<path fill-rule="evenodd" clip-rule="evenodd" d="M29.6383 21.8881C29.6383 21.8881 29.5657 21.8299 29.3503 21.9463C29.1708 22.0423 28.9087 22.2961 28.7049 22.4756C28.5737 22.5825 28.4911 22.6308 28.4169 22.7134C28.1158 23.0727 27.8633 23.6602 28.0092 23.9514C28.1551 24.2426 28.6355 24.5777 29.8588 24.3495L29.6348 21.8884L29.6383 21.8881Z" fill="#E6D89C"/>
<path fill-rule="evenodd" clip-rule="evenodd" d="M29.2402 22.4903C29.2402 22.4903 29.046 22.7914 29.046 23.272C29.046 23.7623 29.3228 24.5437 30.3423 24.602C31.1237 24.6506 31.6479 23.4759 32.2159 23.0196C32.6479 22.6701 32.9099 22.6602 32.9099 22.6602C32.9099 22.6602 32.4683 22.1802 31.2888 21.5584C30.1237 20.9322 28.8178 20.8496 28.109 21.8109C28.444 21.7866 29.5266 21.5098 29.5266 21.5098L30.0559 21.6797L29.2402 22.4906V22.4903Z" fill="#252211"/>
<path fill-rule="evenodd" clip-rule="evenodd" d="M30.7644 23.126C30.7305 23.0534 30.7062 22.9561 30.847 22.9321C30.9878 22.9081 31.0508 22.9222 31.0994 23.0281C31.1481 23.134 31.1954 23.2224 31.1234 23.2662C31.0508 23.3049 30.8614 23.2662 30.7641 23.1254L30.7644 23.126ZM30.5363 22.4416C30.5363 22.4416 30.4876 22.4755 30.5119 22.4077C30.5215 22.3254 30.5849 22.1795 30.7401 22.2137C30.8953 22.248 30.8617 22.4176 30.8361 22.4662C30.8105 22.5149 30.6809 22.5971 30.5836 22.5622C30.5713 22.5591 30.5599 22.553 30.5503 22.5446C30.5407 22.5363 30.5333 22.5257 30.5285 22.5139C30.5238 22.5021 30.5219 22.4893 30.523 22.4766C30.5241 22.464 30.5282 22.4517 30.535 22.4409L30.5363 22.4416Z" fill="#6F674D"/>
<path fill-rule="evenodd" clip-rule="evenodd" d="M17.3961 22.752C17.3961 22.752 17.7801 23.04 18.2262 23.0288C18.6678 23.0188 19.2358 22.5628 19.4979 22.2713C19.6531 22.1014 19.7859 21.9219 19.9299 21.7811C20.0515 21.6598 20.1337 21.6016 20.192 21.519C20.2745 21.423 20.3619 21.2425 20.4057 21.184C20.2988 21.2665 20.1436 21.4124 19.9833 21.5094C19.8281 21.6054 19.4931 21.7859 19.3571 21.8345C19.2262 21.8832 17.8668 22.6025 17.8668 22.6025L17.3961 22.752Z" fill="#AC924C"/>
<path fill-rule="evenodd" clip-rule="evenodd" d="M17.9829 19.1652C17.9829 19.1652 18.1963 19.0196 18.6091 18.9271C19.0072 18.8311 19.8082 18.7572 19.8082 18.7572L20.4683 19.0452L20.7304 20.0404L20.2504 21.0746L19.6389 21.4586L18.9445 20.3422L17.9845 19.1671L17.9829 19.1652Z" fill="#9F8E57"/>
<path fill-rule="evenodd" clip-rule="evenodd" d="M17.119 20.0534L16.8905 20.224C16.8905 20.224 16.9491 20.1171 16.9974 19.792C17.0457 19.4668 17.2985 18.6755 17.6675 18.2192C18.0364 17.7628 18.0268 17.7872 18.0268 17.7872C17.9929 17.7809 17.958 17.782 17.9245 17.7904C17.891 17.7987 17.8597 17.8141 17.8326 17.8355C17.8812 17.728 18.1919 17.3439 18.5027 17.1519C18.8134 16.9599 18.9347 16.8995 19.2598 17.0559C19.5849 17.2124 19.6675 17.2937 19.9055 17.2841C20.1436 17.2745 20.3471 17.022 20.3471 17.022C20.3471 17.022 20.3958 17.1772 20.2163 17.5366C20.0367 17.896 19.3279 18.6288 19.3279 18.6288L17.8521 19.6384L17.119 20.0544V20.0534Z" fill="#EAC970"/>
<path fill-rule="evenodd" clip-rule="evenodd" d="M18.2109 19.0438C18.2109 19.0438 19.279 19.1894 19.6042 18.8886C19.6138 18.9226 19.6528 18.9226 19.6528 18.9469C19.6502 18.9652 19.6416 18.9822 19.6285 18.9952C19.6638 18.9896 19.6996 18.9863 19.7354 18.9856C19.7781 18.9983 19.8221 19.0065 19.8666 19.0099C19.9024 19.0091 19.9381 19.0058 19.9734 19C19.9701 19.0241 19.9619 19.0473 19.9493 19.0682C19.9368 19.0891 19.9202 19.1073 19.9005 19.1216C19.9491 19.1216 19.9965 19.1312 19.9965 19.1699C19.9965 19.2086 20.0061 19.3254 19.9478 19.3498C19.8996 19.3631 19.8482 19.3596 19.8022 19.3398C19.8061 19.4317 19.8311 19.5215 19.8752 19.6022C19.9712 19.7818 20.176 19.9862 20.4512 19.9274C20.4512 19.9274 20.5965 20.2768 19.985 21.0534C19.9027 21.1603 19.815 21.3059 19.7085 21.4272C19.6664 21.519 19.6342 21.615 19.6125 21.7136C19.6125 21.7136 20.6467 21.3155 20.9427 20.4077C21.2438 19.495 21.3021 18.5971 21.2438 17.7574C21.2339 17.5194 21.1952 17.3498 21.137 17.2282C20.9914 16.927 20.5834 16.9757 20.4186 17.1456C20.1805 17.3837 19.7824 17.9757 19.2291 18.3834C18.6659 18.791 18.6419 18.8634 18.2096 19.0438H18.2109Z" fill="#D7BC6B"/>
<path fill-rule="evenodd" clip-rule="evenodd" d="M16.9296 20.3546C16.9296 20.3546 16.7257 20.4759 16.6189 20.9306C16.512 21.3965 16.7149 21.9645 16.8323 22.1441C16.9498 22.3236 17.2163 22.8141 17.7693 22.8385C17.9061 22.8377 18.0415 22.8097 18.1674 22.7559C18.3604 22.6674 18.5415 22.5548 18.7062 22.4209C18.9443 22.2413 19.1382 22.0861 19.1139 22.0714C19.0557 22.0471 17.648 20.882 17.648 20.882L17.1187 20.2913L16.9293 20.3553L16.9296 20.3546Z" fill="#585136"/>
<path fill-rule="evenodd" clip-rule="evenodd" d="M18.2601 22.2864C18.2601 22.2864 18.5465 22.2624 18.7164 22.1555C18.8863 22.0486 17.7212 20.8934 17.7212 20.8934L17.8038 22.1414L18.2601 22.2864Z" fill="#453A25"/>
<path fill-rule="evenodd" clip-rule="evenodd" d="M17.0216 20.2668C17.0216 20.2668 16.876 20.5436 16.876 20.6166C16.8517 20.8544 16.9247 21.6019 16.9829 21.8396C17.0411 22.0921 17.3567 22.4755 17.7647 22.4755C18.0168 22.4755 18.3666 22.3203 18.3666 22.2816C18.3666 22.2329 18.0072 22.1856 17.9103 22.0048C17.852 21.9088 17.8277 21.67 17.8143 21.4288C17.8047 21.2736 17.8047 21.1036 17.8629 21.0448C17.9941 20.8992 18.0181 20.4816 18.0181 20.4816L18.484 19.616H17.8712L17.1381 20.0723L17.0216 20.2668Z" fill="#84754B"/>
<path fill-rule="evenodd" clip-rule="evenodd" d="M16.8423 20.5341C16.8423 20.5341 17.3223 19.8983 17.7549 19.7523C18.1876 19.6064 18.3812 19.6941 18.3812 19.6941L18.1287 20.3399L17.7693 20.7379L17.7936 20.9418C17.7936 20.9418 17.7351 21.4807 18.0944 21.8544C18.4538 22.2282 18.7207 22.2138 18.8762 22.2138C19.0317 22.2138 19.4781 22.0826 19.7063 21.5437C19.9101 21.0391 20.08 20.3917 19.6723 19.7427C19.2739 19.097 18.5703 19.072 18.4343 19.072C18.2983 19.072 17.2304 19.1255 16.8423 20.5331V20.5341Z" fill="#252211"/>
<path fill-rule="evenodd" clip-rule="evenodd" d="M29.1673 22.694C28.9878 22.6114 29.1577 22.1068 29.3373 21.9512C29.5168 21.7957 29.7449 21.6165 30.1433 21.5919C30.2886 21.5823 30.4294 21.6744 30.4054 21.7717C30.3715 21.9512 30.119 22.2037 29.8909 22.3832C29.5753 22.6309 29.3712 22.7861 29.1673 22.694Z" fill="#F7F7E7"/>
<path fill-rule="evenodd" clip-rule="evenodd" d="M19.4586 19.9416C19.5898 19.932 19.7597 20.0376 19.7936 20.1797C19.8275 20.3349 19.711 20.6457 19.4586 20.6457C19.2547 20.6457 19.1478 20.3932 19.1478 20.3205C19.1501 20.2608 19.1668 20.2025 19.1965 20.1506C19.2061 20.1359 19.2304 19.966 19.4586 19.9416Z" fill="#F8F6DE"/>
<path fill-rule="evenodd" clip-rule="evenodd" d="M17.5653 20.0535C17.5653 20.0535 17.2303 20.2087 17.0751 20.5335C16.9642 20.7733 16.9307 21.0417 16.9791 21.3015C17.0034 21.4227 17.1247 21.7235 17.2073 21.8304C17.2898 21.9373 17.4015 22.0102 17.4841 22.0003C17.5666 21.9904 17.7362 21.7722 17.7362 21.6413C17.7362 21.5104 17.7462 20.9568 17.9062 20.6557C18.047 20.3549 17.5663 20.0538 17.5663 20.0538L17.5653 20.0535Z" fill="#D4C38B"/>
<path fill-rule="evenodd" clip-rule="evenodd" d="M17.6141 20.0291C17.5558 20.063 17.4589 20.1117 17.4829 20.1747C17.5072 20.2329 17.711 20.2707 17.784 20.4128C17.8666 20.5584 17.8666 20.7136 17.8422 20.7865C17.9056 20.7564 17.9632 20.7152 18.0122 20.6649C18.119 20.5437 18.2499 20.3789 18.3616 20.3789C18.4346 20.3789 18.5072 20.4128 18.5754 20.4128C18.6822 20.4128 18.7888 20.3789 18.8035 20.2672C18.8275 20.1216 18.5997 19.9904 18.4685 20.0147C18.4928 19.9187 18.5267 19.7769 18.4198 19.6797C18.313 19.5824 17.9782 19.7526 17.9053 19.8013C17.8323 19.8499 17.6141 20.0294 17.6141 20.0294V20.0291Z" fill="#E2D59D"/>
<path fill-rule="evenodd" clip-rule="evenodd" d="M25.3278 30.2282L26.0462 30.016L26.25 30.1616C26.25 30.1616 26.3953 30.4723 26.6238 30.511C26.5508 30.6662 26.3614 30.799 26.3713 30.9091C26.3812 31.0192 26.4782 31.1034 26.4782 31.1034C26.4782 31.1034 25.8324 32.1712 27.1044 33.2474C26.8033 33.3686 26.42 33.5354 26.2161 33.6314C26.3614 33.6653 26.6721 33.7274 26.8033 33.8451C26.9345 33.9629 26.9345 34.0003 27.0558 34.0733C27.1771 34.1462 27.2497 34.2432 27.2257 34.2867C27.1432 34.2381 26.8664 34.0928 26.818 34.2285C26.7697 34.3642 25.619 34.311 25.619 34.311L23.6772 34.6848C23.6772 34.6848 23.7499 34.4906 23.546 34.311C23.3083 34.0976 23.0171 34.3206 22.7064 34.0829C22.2987 33.7722 22.284 33.4128 22.1531 33.2771C22.284 33.1946 22.5512 33.0733 23.187 32.9891C23.1627 32.9405 23.0801 32.7949 23.1288 32.664C23.187 32.4941 23.4296 32.3872 23.3569 32.184C23.4638 32.1597 23.5121 32.1597 23.7793 31.8246C24.0318 31.4896 24.187 31.417 24.3812 31.3926C24.5755 31.3683 24.692 31.3926 25.0513 31.0576C25.3035 30.8198 25.2212 30.616 25.2212 30.616C25.2212 30.616 25.386 30.5626 25.3281 30.2275L25.3278 30.2282Z" fill="#CBAC5A"/>
<path fill-rule="evenodd" clip-rule="evenodd" d="M23.2063 30.336C23.2159 30.2874 23.255 30.2631 23.517 30.2874C23.7791 30.3117 25.4393 30.1322 25.8908 30.1079C26.3471 30.074 27.9539 30.098 28.7356 30.2631C29.5174 30.4282 30.3084 30.6224 30.6918 30.7194C31.0758 30.8263 31.1967 30.8647 31.182 30.9133C31.1724 30.9619 31.086 31.0093 31.0364 30.9959C30.9881 30.9863 29.7161 30.5978 29.3231 30.5159C28.9302 30.434 27.5705 30.2148 26.8271 30.2279C26.133 30.2378 25.8563 30.2183 25.269 30.2861C24.6815 30.3591 23.7106 30.456 23.4194 30.4173C23.1314 30.3834 23.191 30.3834 23.2057 30.3348L23.2063 30.336Z" fill="#D6BC6F"/>
<path fill-rule="evenodd" clip-rule="evenodd" d="M27.1139 34.1408C27.1139 34.1408 28.1091 34.6797 28.4685 35.3399C28.7306 35.8301 28.3133 36.073 28.3133 36.073C28.3133 36.073 28.8765 36.073 28.8035 36.3837C28.7696 36.5776 27.8327 37.1018 27.2064 37.3786C26.5706 37.6554 26.5949 37.641 26.2842 37.6893C25.9831 37.7379 25.1578 37.5933 24.9878 37.8349C24.8179 38.0765 24.8918 38.3255 24.9392 38.3642C24.9878 38.3981 25.3811 38.4467 25.3811 38.4467C25.3811 38.4467 25.2986 38.6749 24.4832 38.6992C23.6678 38.7235 23.4637 38.7815 23.415 38.8691C23.3664 38.9514 23.5702 38.9031 23.9443 38.9651C24.3181 39.0234 24.8422 39.0611 24.8422 39.0611C24.8422 39.0611 24.6723 39.2067 24.2307 39.3232C23.7258 39.4541 22.9344 39.5757 22.6966 39.7213C22.8179 39.8039 22.9978 39.9251 23.0806 39.9347C22.8768 39.9834 22.5901 40.0903 22.5418 40.129C22.6144 40.1776 22.7117 40.2359 22.7117 40.2359C22.7117 40.2359 22.3037 40.7261 22.0659 40.8477C21.8282 40.9693 20.4592 41.6048 19.9882 41.4835C18.8134 41.1728 18.6678 39.8864 18.3814 39.7895C17.9494 39.6439 17.7456 39.9347 17.3619 39.7309C17.5318 39.6096 17.6243 39.537 17.8038 39.4544C17.6096 39.3584 16.6048 38.7213 16.6048 38.7213C16.4997 38.4923 16.3831 38.2687 16.2554 38.0515C16.0611 37.7165 15.7754 37.2698 15.561 36.8765C15.095 36.0125 15.0707 35.6144 14.6483 35.1242C14.7213 35.0282 14.9734 35.0416 14.9734 35.0416L18.5126 36.2067L24.7882 36.3885L26.4202 34.0586L27.1143 34.1412L27.1139 34.1408Z" fill="#DFC677"/>
<path fill-rule="evenodd" clip-rule="evenodd" d="M17.8179 37.6941C17.8557 37.7363 17.8999 37.7723 17.9488 37.801C18.0704 37.8836 18.2499 37.9808 18.3712 38.1261C18.4198 38.0535 18.5411 37.9223 18.7552 38.1261C18.9692 38.33 19.2352 38.1847 19.4006 38.233C19.5705 38.2916 19.5801 38.3156 19.5801 38.3156C19.5801 38.3156 19.6761 38.233 19.8908 38.1456C20.022 38.097 20.1772 38.0631 20.3472 38.0148C20.5024 37.9808 20.6723 37.9322 20.7891 37.9322C20.896 38.0048 21.2793 38.4122 22.8182 37.8109C24.2697 37.2477 24.6044 37.1847 24.8473 37.2717C24.8716 37.2135 24.896 37.1018 25.2697 37.1165C25.2697 36.9613 24.959 36.432 24.959 36.432L23.2454 35.8448H22.3081L19.4976 36.3594L17.9401 37.248L17.8188 37.696L17.8179 37.6941Z" fill="#C4A859"/>
<path fill-rule="evenodd" clip-rule="evenodd" d="M16.881 36.7089C16.881 36.7089 16.9149 36.9709 17.3034 37.2477C17.6874 37.5242 17.808 37.6893 17.808 37.6893C17.808 37.6893 17.881 37.5933 17.9392 37.4954C17.9975 37.3885 18.0461 37.2673 18.1431 37.2333C18.3373 37.1508 18.7789 37.306 18.8762 37.2817C18.9587 37.2577 18.9344 37.0877 19.0218 37.0877C19.2256 37.0778 19.3565 37.2186 19.4295 37.2186C19.5024 37.2186 19.6816 37.209 19.7059 37.1703C19.7303 37.1316 19.7399 36.7284 20.0167 36.5341C20.3178 36.3207 20.6867 36.4129 20.7847 36.4615C20.7847 36.5341 20.7943 36.714 20.9885 36.7236C21.1827 36.7332 21.2019 36.6993 21.3725 36.7575C21.5431 36.8157 21.7463 36.7479 21.8384 37.034C21.921 37.01 22.1152 36.9857 22.0666 36.7089C22.1626 36.6362 22.2464 36.5876 22.4506 36.3012C22.4992 36.2285 22.5815 36.146 22.6448 36.0391C22.8147 36.0391 23.0186 36.0052 23.2903 36.2429C23.2077 36.3012 23.1591 36.3389 23.1351 36.3981C23.2061 36.4685 23.271 36.5448 23.329 36.6263C23.4019 36.7223 23.4506 36.8401 23.5427 36.8644C23.7466 36.9226 24.0816 36.8401 24.4554 36.8644C24.8147 36.8887 25.1155 37.0196 25.2467 37.1021C25.2954 37.0781 25.2954 37.0682 25.4167 37.0925C25.5379 37.1169 25.6301 37.1265 25.4992 36.9713C25.5719 37.0052 25.6544 37.0781 25.7274 37.0052C25.8003 36.9322 25.8583 36.8257 26.0621 36.8013C26.2659 36.777 26.3389 36.8109 26.4215 36.5975C26.5283 36.3354 26.1594 36.3354 26.1594 36.3354C26.1594 36.3354 26.3293 36.1799 26.5187 35.9761C26.7469 35.7626 27.009 35.4858 27.072 35.146C27.1789 34.5197 26.5674 34.4375 26.5674 34.4375L23.6013 35.3501L19.9751 35.1703L16.8829 36.7092L16.881 36.7089Z" fill="#927D49"/>
<path fill-rule="evenodd" clip-rule="evenodd" d="M14.2159 28.1408C14.2159 28.1408 14.1199 28.2621 14.0607 28.5485C14.0015 28.8349 14.0268 28.801 13.9781 29.0048C13.9295 29.2087 13.332 31.2378 13.556 31.9223C13.78 32.6068 14.1679 32.8593 14.4104 33.4125C14.4591 33.5338 14.5064 33.6068 14.5317 33.7137C14.6143 34.0727 14.5416 34.3495 14.6386 34.7089C14.6725 34.8302 14.7602 34.971 14.8911 35.1166C15.1791 35.4174 15.6485 35.7038 15.8511 35.9076C16.1372 36.2087 16.5452 36.8206 17.0645 36.8785C17.3413 36.9124 17.7346 36.7959 18.0597 36.602C18.3477 36.4222 18.5256 36.17 18.8277 36.026C19.0412 35.9191 19.2693 35.8804 19.4732 35.8318C19.8956 35.7492 20.2792 35.7358 20.5074 35.7831C20.8568 35.8561 21.6821 36.1086 22.1394 36.1086C22.4967 36.1028 22.852 36.0539 23.1976 35.963C23.8917 35.7591 24.7314 35.4094 25.285 35.2542C25.6101 35.1581 25.8722 35.1329 26.1394 35.0746C26.5957 34.9677 26.9791 34.8222 27.1976 34.5453C27.052 34.3754 26.8725 34.1133 25.9013 34.1229C24.7995 34.1473 23.5276 34.7588 22.9013 34.8561C22.2751 34.9534 22.0034 35.0356 21.3042 34.7831C20.6188 34.5281 20.596 34.3594 20.596 34.3594C20.596 34.3594 19.8764 33.8561 19.5752 32.5729C19.2741 31.2896 19.5752 30.3546 20.357 29.466C20.5608 29.2378 20.5122 29.034 20.5122 29.034C20.5122 29.034 21.0268 28.3399 20.886 27.6899C20.7308 27.0442 19.7356 27.1754 19.7356 27.1754L14.2162 28.1408H14.2159Z" fill="#6E6342"/>
<path fill-rule="evenodd" clip-rule="evenodd" d="M15.046 30.3011C15.0032 30.3816 14.983 30.4722 14.9877 30.5632C14.9973 30.6941 15.0364 30.864 15.4293 31.2477C15.7644 31.5824 15.6914 31.9561 15.6914 31.9561C15.6914 31.9561 15.86 31.9901 16.3176 31.776C16.677 31.6061 16.7976 31.9072 16.7976 31.9072C16.9023 31.8523 17.0156 31.8162 17.1327 31.8003C17.2387 31.7905 17.3414 31.7578 17.4335 31.7043C17.4335 31.7043 17.8559 32.1363 18.2248 32.3401C18.5599 32.52 18.7541 32.6412 18.9192 32.52C19.0744 32.4131 19.0744 32.1945 19.0645 32.0976C19.026 32.0081 18.9773 31.9234 18.9192 31.8451C18.8124 31.6899 18.6424 31.5101 18.6312 31.3651C18.6069 31.0304 18.8837 30.632 18.8252 30.5351C18.7666 30.4381 18.5487 30.4138 18.0098 30.608C17.4517 30.7923 15.0437 30.3021 15.0437 30.3021L15.046 30.3011Z" fill="#39331F"/>
<path fill-rule="evenodd" clip-rule="evenodd" d="M16.3177 32.4711C16.3177 32.4711 16.0412 32.209 16.1382 30.9371C16.2555 30.9353 16.3727 30.9467 16.4876 30.971C16.4876 30.971 16.6383 31.9566 16.3177 32.4711Z" fill="#292311"/>
<path fill-rule="evenodd" clip-rule="evenodd" d="M14.3472 27.1699C14.3857 27.1413 14.4215 27.1092 14.454 27.0739C14.358 27.2534 13.9148 27.9718 14.2742 29.103C14.6336 30.2291 15.5363 31.0687 16.648 31.1078C17.7596 31.1468 18.344 30.6028 19.0121 29.7875C19.2742 29.4623 19.5753 29.0543 19.8422 28.7779C20.2403 28.3455 20.551 28.2243 20.551 27.807C20.551 26.9526 19.6771 26.5689 18.3907 26.1856C17.1043 25.8022 15.944 25.8496 15.342 26.112C14.7548 26.398 14.5024 26.6992 14.3468 27.1702L14.3472 27.1699Z" fill="#252211"/>
<path fill-rule="evenodd" clip-rule="evenodd" d="M18.478 32.8544L18.574 32.8057C18.574 32.8057 18.598 32.4217 18.7535 32.432C18.9087 32.4563 18.9817 32.6604 18.967 32.7331C18.9574 32.8057 18.9186 32.9273 18.7631 32.9126C18.5593 32.9174 18.4771 32.8544 18.4771 32.8544H18.478Z" fill="#3F3824"/>
<path fill-rule="evenodd" clip-rule="evenodd" d="M18.046 31.2232C18.046 31.2232 18.142 31.1893 18.2595 31.3058C18.3555 31.3058 18.774 31.2572 18.9052 31.3397C19.0364 31.4223 19.0751 31.495 19.0751 31.495C19.0751 31.495 18.5849 31.6019 18.3177 31.495C18.046 31.4028 18.046 31.2232 18.046 31.2232Z" fill="#2D2815"/>
<path fill-rule="evenodd" clip-rule="evenodd" d="M20.2064 31.296C20.2064 31.2716 19.9443 31.0921 19.6675 31.0336C19.6189 31.024 19.609 31.0579 19.5715 31.0579C19.5472 31.0483 19.5376 30.9753 19.5376 30.9753L19.3802 31.0582C19.3802 31.0582 19.3559 31.0921 19.4384 31.1542C19.5111 31.2124 19.6326 31.2611 19.6666 31.358C19.7005 31.455 19.7005 31.4889 19.7152 31.5036C19.7248 31.5132 19.8947 31.5036 19.9773 31.455C20.0598 31.4064 20.2153 31.327 20.2054 31.295L20.2064 31.296Z" fill="#82764F"/>
<path fill-rule="evenodd" clip-rule="evenodd" d="M17.7549 32.2816C17.7549 32.2816 17.8032 31.9469 18.1286 31.9322C18.4634 31.9079 18.5267 32.233 18.5267 32.233L18.3325 32.4272C18.3325 32.4224 18.1869 32.2186 17.7565 32.2816H17.7549Z" fill="#2D2816"/>
<path fill-rule="evenodd" clip-rule="evenodd" d="M19.8665 30.8397C19.8665 30.8397 19.6866 31.034 19.2889 31.0922C19.255 31.0436 19.182 30.9466 19.2889 30.7914C19.3958 30.6362 19.517 30.5875 19.6383 30.6358C19.6918 30.6445 19.7417 30.6683 19.7822 30.7044C19.8226 30.7406 19.8519 30.7875 19.8665 30.8397Z" fill="#574F35"/>
<path fill-rule="evenodd" clip-rule="evenodd" d="M20.5993 31.0777C20.6092 31.0291 20.5753 31.0195 20.5993 30.9951C20.6233 30.9708 20.7548 30.9225 20.7792 30.9465C20.7888 30.9564 20.7792 30.9951 20.7792 31.0425C20.7792 31.0899 20.7792 31.1385 20.7549 31.1734C20.7209 31.222 20.624 31.2463 20.5753 31.2319C20.5267 31.2175 20.5171 31.1494 20.5171 31.1359C20.5411 31.1263 20.5993 31.102 20.5993 31.0777ZM21.4281 30.5535C21.4281 30.5292 21.5107 30.4806 21.5593 30.4806C21.632 30.4806 21.632 30.5388 21.6419 30.5535C21.6659 30.5631 21.6659 30.5436 21.6902 30.5875C21.7145 30.6313 21.7488 30.7087 21.7241 30.7574C21.6995 30.806 21.6029 30.8396 21.5789 30.83C21.5449 30.8057 21.4381 30.5875 21.4281 30.5535Z" fill="#82764F"/>
<path fill-rule="evenodd" clip-rule="evenodd" d="M19.7598 31.1894C19.7598 31.1894 19.8666 31.2134 20.0122 31.335C19.9636 31.3689 19.8906 31.4076 19.8906 31.4076C19.8906 31.4076 19.881 31.296 19.7598 31.1891V31.1894Z" fill="#6E6342"/>
<path fill-rule="evenodd" clip-rule="evenodd" d="M19.5219 30.1213C19.4976 30.0973 19.5945 30.0391 19.6528 30.0487C19.711 30.0583 19.7353 30.0973 19.7984 30.1069C19.8614 30.1165 19.8713 30.0826 19.8944 30.0583C19.9174 30.034 20.0013 30.0487 20.0157 30.0583C20.0246 30.069 20.0328 30.0803 20.04 30.0922C20.041 30.0738 20.0458 30.0557 20.0541 30.0392C20.0624 30.0227 20.0741 30.008 20.0883 29.9962C20.1069 29.9825 20.1284 29.9732 20.1511 29.969C20.1738 29.9648 20.1972 29.9658 20.2195 29.9719C20.2291 30.0058 20.2778 30.1271 20.2682 30.1514C20.2586 30.1757 20.1129 30.21 20.0883 30.1853C20.1126 30.2439 20.2195 30.3652 20.2339 30.3892C20.2483 30.4132 20.127 30.4717 20.0787 30.4621C20.0109 30.4573 19.5933 30.2145 19.5206 30.1223L19.5219 30.1213ZM20.1577 29.3156C20.1488 29.2911 20.1316 29.2705 20.1091 29.2573C20.0752 29.2477 19.9635 29.2573 19.9635 29.3156C19.9635 29.3738 20.0595 29.6996 20.1673 29.8692C20.2889 30.0391 20.3712 30.1796 20.4538 30.2186C20.4797 30.2304 20.5091 30.232 20.5361 30.2229C20.5631 30.2139 20.5857 30.195 20.5994 30.17C20.609 30.1457 20.6333 29.9661 20.6237 29.5437C20.6141 29.1213 20.5994 28.7137 20.575 28.6893C20.5507 28.665 20.4538 28.6653 20.4198 28.7137C20.3859 28.762 20.1673 29.2429 20.1574 29.3156H20.1577Z" fill="#585136"/>
<path fill-rule="evenodd" clip-rule="evenodd" d="M19.7257 31.8009C19.7257 31.8009 19.5557 31.694 19.3906 31.7669C19.2354 31.8399 19.245 32.1263 19.245 32.1263C19.2799 32.14 19.3176 32.1449 19.3549 32.1407C19.3921 32.1364 19.4278 32.1231 19.4588 32.102C19.5656 32.0293 19.7013 31.9081 19.7257 31.8012V31.8009Z" fill="#574F35"/>
<path fill-rule="evenodd" clip-rule="evenodd" d="M20.046 32.1846C20.0364 32.0886 19.95 32.0886 19.95 32.039C19.9559 32.0153 19.9696 31.9943 19.989 31.9793C20.0083 31.9643 20.0321 31.9563 20.0565 31.9564C20.1052 31.9564 20.1525 32.0147 20.212 32.0524C20.2703 32.0864 20.3576 32.1484 20.3672 32.2224C20.3768 32.2963 20.2712 32.4988 20.1538 32.4988C20.0364 32.4988 20.0712 32.2803 20.0469 32.1833L20.046 32.1846ZM20.9829 32.0534C20.9829 32.0534 20.7887 32.1116 20.8031 32.0534C20.8175 31.9952 20.8616 31.9808 20.9247 31.9808C20.9567 31.9472 20.9998 31.9264 21.046 31.9222C21.0724 31.9209 21.0983 31.9296 21.1186 31.9465C21.1186 31.9465 21.2498 31.8883 21.2885 31.9222C21.3272 31.9561 21.2984 31.9561 21.3224 31.9952C21.353 32.0385 21.373 32.0883 21.381 32.1408C21.381 32.1795 21.2354 32.262 21.1186 32.2476C20.9829 32.2185 21.0069 32.0777 20.9829 32.0534ZM22.1138 31.8348C22.1138 31.8348 22.172 31.8688 22.1237 31.9078C22.0898 31.9417 21.9199 32.0038 21.774 32.0147C21.6284 32.0147 21.4975 32.0387 21.4975 31.9904C21.4975 31.942 21.6188 31.8448 21.6914 31.8204C21.706 31.8022 21.7245 31.7875 21.7455 31.7774C21.7666 31.7673 21.7896 31.7621 21.813 31.7622C21.8712 31.7622 22.0991 31.7379 22.1624 31.7283C22.2207 31.7184 22.2693 31.7523 22.2351 31.8009C22.2207 31.8348 22.1138 31.8348 22.1138 31.8348ZM22.4488 30.3359C22.4488 30.3359 22.3759 30.4911 22.2936 30.4911C22.2111 30.4815 22.2111 30.4572 22.2111 30.4329C22.2111 30.399 22.2936 30.3116 22.2837 30.2873C22.2597 30.2873 22.2012 30.2873 22.2111 30.2291C22.2111 30.1804 22.2936 30.1222 22.3663 30.1331C22.4212 30.088 22.4895 30.0624 22.5605 30.0604C22.6431 30.0604 22.7157 30.0844 22.7157 30.1331C22.7157 30.1817 22.6197 30.2883 22.5845 30.3129C22.5458 30.3516 22.4972 30.3769 22.4488 30.3369V30.3359ZM21.342 33.2048C21.342 33.2048 21.246 33.2147 21.246 33.263C21.246 33.2873 21.27 33.2873 21.3042 33.2729C21.3239 33.2718 21.3435 33.2685 21.3624 33.263C21.372 33.2729 21.372 33.3213 21.445 33.3213C21.5049 33.3132 21.5626 33.2934 21.6149 33.263C21.6732 33.239 21.7218 33.2144 21.7218 33.167C21.6975 33.0845 21.6488 33.0454 21.5762 33.0454C21.539 33.0431 21.5019 33.0515 21.4693 33.0697C21.4693 33.0697 21.445 33.0211 21.3624 33.0697C21.2799 33.1184 21.2895 33.1184 21.3138 33.1427C21.3573 33.1814 21.3429 33.2067 21.3429 33.2067L21.342 33.2048ZM20.7935 33.7097C20.7935 33.6854 20.9148 33.6368 20.9487 33.6515C20.9826 33.6611 21.0796 33.8454 21.0796 33.8649C21.0796 33.8893 20.9583 33.9475 20.9096 33.9475C20.861 33.9475 20.7788 33.8649 20.7788 33.8515C20.7788 33.8419 20.837 33.8275 20.837 33.8176C20.8514 33.7936 20.7935 33.735 20.7935 33.7107V33.7097ZM20.4095 33.0009C20.4338 32.9913 20.4338 32.967 20.4677 32.9427C20.4783 32.9356 20.4904 32.9311 20.5031 32.9294C20.5157 32.9278 20.5286 32.929 20.5407 32.9331C20.5492 32.9178 20.5611 32.9046 20.5754 32.8945C20.5896 32.8844 20.606 32.8776 20.6232 32.8745C20.6815 32.8649 20.7301 32.8745 20.7192 32.8988C20.7192 32.9718 20.7679 33.0201 20.7679 33.0784C20.7679 33.1366 20.734 33.2096 20.6127 33.2582C20.4914 33.2921 20.3263 33.2921 20.302 33.2825C20.2776 33.2729 20.2533 33.1757 20.2776 33.127C20.302 33.0784 20.3698 33.0253 20.4088 33.0009H20.4095Z" fill="#82764F"/>
<path fill-rule="evenodd" clip-rule="evenodd" d="M20.5641 33.0339C20.5641 33.0339 20.4816 33.0826 20.4816 33.1069C20.4742 33.1304 20.471 33.1549 20.472 33.1795C20.472 33.1939 20.5789 33.1699 20.5933 33.1552C20.5981 33.1456 20.5641 33.0592 20.5641 33.0339Z" fill="#6E6342"/>
<path fill-rule="evenodd" clip-rule="evenodd" d="M19.8422 32.8058C19.8905 32.8157 19.9731 32.8058 20.0361 32.8301C20.0848 32.8544 20.1187 32.903 20.07 32.9613C20.0214 33.0195 19.974 33.1069 19.8662 33.0921C19.7449 33.0825 19.6284 33.0195 19.6284 32.9709C19.6264 32.9401 19.6305 32.9092 19.6405 32.8801C19.6505 32.8509 19.6662 32.824 19.6867 32.801C19.7353 32.7623 19.7593 32.7866 19.8419 32.8058H19.8422Z" fill="#585136"/>
<path fill-rule="evenodd" clip-rule="evenodd" d="M19.7838 32.8544C19.7838 32.8544 19.6286 32.9756 19.5896 33.0342C19.541 33.0924 19.3032 33.3933 19.2306 33.4563C19.2547 33.4137 19.2822 33.3732 19.3128 33.335C19.2168 33.3964 19.1448 33.4889 19.109 33.5971C19.0507 33.7769 19.4344 33.8739 19.6866 33.9469C19.9387 34.0198 20.0363 34.0429 20.0363 34.0429C19.9435 33.9033 19.8638 33.7555 19.7982 33.6013C19.7022 33.3731 19.6526 33.3488 19.7157 33.2419C19.7643 33.135 19.8373 33.0624 19.8373 32.9798C19.8082 32.903 19.7838 32.8544 19.7838 32.8544Z" fill="#574F35"/>
<path fill-rule="evenodd" clip-rule="evenodd" d="M14.2499 33.2381C14.2852 33.2446 14.3215 33.2446 14.3568 33.2381C14.4294 33.2282 15.1869 32.9501 15.9782 33C16.5707 33.0358 17.1578 33.1323 17.7306 33.288C18.7258 33.5501 19.9635 34.0695 20.7645 34.3658C20.9779 34.448 21.1869 34.594 21.3405 34.6519C21.9523 34.89 21.9763 34.89 22.3357 34.953C22.7581 35.0112 23.1901 34.8704 23.6416 34.7735C24.1949 34.6519 25.1414 34.5936 25.9715 34.4724C26.2399 34.4351 26.5047 34.3751 26.7629 34.2928C26.7629 34.2928 26.1027 34.953 24.52 35.1908C23.8803 35.2879 23.2301 35.2961 22.5882 35.2151C22.0832 35.1664 21.7485 35.0935 21.496 35.0208C21.2096 34.9383 20.6221 34.7197 19.8989 34.5408C19.3939 34.4096 18.8307 34.3127 18.1853 34.1914C16.593 33.8999 14.8649 33.5651 14.2493 33.24L14.2499 33.2381Z" fill="#252211"/>
<path fill-rule="evenodd" clip-rule="evenodd" d="M12.4633 30.2382C12.0793 30.5633 11.672 30.874 11.2742 31.1748L10.0752 32.0961C9.66748 32.3969 9.2694 32.7076 8.8614 33.0087C8.4534 33.3098 8.04604 33.5959 7.6134 33.8727C7.9974 33.5476 8.40476 33.2465 8.81244 32.9505C9.22012 32.6545 9.64284 32.3642 10.0361 32.0641L11.2352 31.1415C11.6476 30.8407 12.0457 30.53 12.4633 30.2388V30.2382ZM10.342 33.6362C10.342 33.6362 10.774 33.2769 11.3129 32.7722C11.9827 32.1463 12.8032 31.345 13.0652 31.1998L10.3417 33.6366L10.342 33.6362Z" fill="#CFB66C"/>
<path fill-rule="evenodd" clip-rule="evenodd" d="M10.3419 33.6358C10.5557 33.4223 10.7838 33.2137 11.012 33.0095L11.3614 32.7087C11.4683 32.6127 11.5899 32.5049 11.6965 32.398C11.9099 32.1846 12.1189 31.9561 12.3323 31.7379C12.4381 31.6281 12.55 31.5244 12.6674 31.4272C12.726 31.3752 12.7912 31.3311 12.8613 31.296C12.9198 31.262 12.9829 31.2 13.0651 31.1891C13.0168 31.262 12.9586 31.296 12.9099 31.359C12.8517 31.4076 12.803 31.4659 12.7547 31.5142C12.6478 31.6211 12.5266 31.718 12.4197 31.8153C12.1915 32.0096 11.9538 32.1993 11.7256 32.4025C11.4974 32.6057 11.284 32.8249 11.0555 33.0287C10.8082 33.2377 10.58 33.4415 10.3419 33.6367V33.6358ZM13.245 31.694C13.245 31.694 11.6626 33.2428 11.3371 33.495L13.245 31.694Z" fill="#CFB66C"/>
<path fill-rule="evenodd" clip-rule="evenodd" d="M13.2451 31.6941C13.1028 31.8589 12.9501 32.0145 12.7882 32.16L12.3082 32.6163C12.153 32.7715 12.007 32.927 11.8422 33.0822C11.6723 33.2278 11.5171 33.3703 11.3373 33.5047L11.8032 33.0483C11.9587 32.8931 12.1286 32.7623 12.2938 32.6067L12.7597 32.1504C12.9197 31.9904 13.0752 31.8349 13.2451 31.6941ZM13.3178 32.5338C13.1719 32.9409 13 33.3382 12.8032 33.7232C12.3955 34.5389 11.784 35.5581 11.5168 36.0778L13.3178 32.5338Z" fill="#CFB66C"/>
<path fill-rule="evenodd" clip-rule="evenodd" d="M13.3178 32.5341C13.3178 32.7136 13.2691 32.8691 13.2109 33.0243C13.1541 33.1796 13.0894 33.332 13.017 33.4806C12.944 33.6262 12.8614 33.7818 12.7789 33.9226C12.6963 34.0634 12.5994 34.2087 12.5264 34.3546L12.0362 35.2186C11.8662 35.5066 11.7011 35.7962 11.5216 36.073C11.6429 35.7623 11.808 35.4711 11.9635 35.1847C12.1334 34.8967 12.2886 34.6087 12.4435 34.3107C12.5191 34.1623 12.5872 34.0101 12.6474 33.8547C12.72 33.6992 12.7926 33.5536 12.8512 33.4128C12.9238 33.2576 12.9821 33.1117 13.055 32.9712C13.1373 32.8205 13.2054 32.6749 13.3171 32.5341H13.3178Z" fill="#CFB66C"/>
<path fill-rule="evenodd" clip-rule="evenodd" d="M15.046 36.5145C15.046 36.5145 14.566 37.1504 14.614 37.9561C14.7448 37.534 14.91 36.8883 15.046 36.5145ZM15.5023 37.152C15.5023 37.152 15.3324 38.88 15.1916 39.7296C15.3906 38.7475 15.4293 38.83 15.5023 37.152ZM18.6818 39.8316C18.6818 39.8316 17.9634 41.9436 17.9487 42.5305C18.1042 41.927 18.405 40.694 18.6818 39.83V39.8316Z" fill="#DEC270"/>
<path fill-rule="evenodd" clip-rule="evenodd" d="M20.3616 36.384C20.3616 36.384 21.5267 38.3063 22.4006 39.9469C22.1641 39.1213 21.6201 37.6071 20.3616 36.384Z" fill="#CBAF59"/>
<path fill-rule="evenodd" clip-rule="evenodd" d="M23.4927 39.2137C24.1324 40.3445 24.7093 41.5097 25.2207 42.704C25.1237 41.8787 24.8613 40.4662 23.4927 39.2137Z" fill="#E3C677"/>
<path fill-rule="evenodd" clip-rule="evenodd" d="M32.6966 42.048C32.8905 41.9268 33.2742 41.2663 33.6092 41.1015C33.9439 40.9316 34.1964 40.8976 34.4975 40.5626C34.7983 40.2128 34.8815 39.9994 35.5411 39.7229C36.4636 39.3245 35.8291 38.81 35.8291 38.81C35.9307 38.7102 36.0393 38.6178 36.1542 38.5335C36.3922 38.354 36.6687 38.1354 36.6447 37.7517C36.6108 37.1063 36.4895 36.1693 35.9602 35.6256C36.4748 35.5188 37.4601 35.4461 38.0722 35.2909C38.7807 35.1111 39.1062 34.8586 39.1062 34.8586C39.1062 34.8586 38.6985 34.1645 39.3586 33.4656C40.0188 32.7668 40.5577 32.3492 40.9558 31.5674C40.4994 31.5092 39.8038 31.2666 38.0284 31.9412C38.1242 31.9863 38.2167 32.0381 38.3052 32.0964C38.3052 32.0964 37.213 32.3975 36.815 32.7325C36.1206 33.3197 36.0332 33.8004 35.2809 34.1597C34.5286 34.5191 33.7711 34.4218 33.1452 34.713C32.5193 35.0042 32.4268 35.2519 32.1983 35.3588C32.247 35.417 32.1887 35.514 32.2809 35.5965C32.2227 35.6791 31.8828 36.2324 31.5382 36.2324C31.5721 36.3636 31.8633 36.4605 31.8633 36.4605C31.8633 36.4605 31.6499 36.616 31.1062 36.6548C31.3827 36.9428 31.6451 37.2567 32.3683 37.713C32.31 37.8343 32.0671 38.0141 32.1644 38.2423C32.2713 38.4704 32.5484 38.7812 33.6547 39.0336C33.0915 39.0576 32.4316 39.1888 31.5427 39.0676C30.6543 38.9607 30.5087 38.8976 29.9603 39.0336C30.0185 39.0919 30.1737 39.0919 30.3097 39.2471C30.1641 39.2567 29.2515 39.1402 28.9407 39.5482C28.6156 39.9703 28.4748 40.6647 28.4991 41.1306C28.3292 41.2132 28.1641 41.3588 28.2467 41.6599C28.3292 41.961 28.7612 42.058 29.038 42.2471C29.3145 42.4509 29.3388 42.5236 29.6012 42.4752C29.8777 42.417 30.2854 42.1405 30.5235 42.1405C30.7615 42.1405 30.9311 42.32 30.9311 42.32C30.9311 42.32 31.5769 42.0093 31.6399 42.0676C31.6982 42.1258 31.6495 42.4996 31.7126 42.5578C31.7766 42.6016 32.5039 42.1696 32.6982 42.048H32.6966Z" fill="#ECD592"/>
<path fill-rule="evenodd" clip-rule="evenodd" d="M46.8083 22.6215C43.7744 14.7866 36.2743 13.3351 36.2743 13.3351H14.8762L14.9587 21.3156H19.2202V39.136H14.8759V47.1021H35.6819C40.6963 47.1021 44.7159 42.0631 44.7159 42.0631C51.1527 32.9274 46.808 22.6215 46.808 22.6215H46.8083ZM35.7936 36.6941C35.7936 36.6941 34.1616 39.0487 32.3859 39.0487H28.8339L28.7498 21.3351H33.3082C33.3082 21.3351 35.4202 21.7767 36.8957 25.9562C36.8957 25.9562 38.8519 31.9402 35.7936 36.6941Z" fill="white" fill-opacity="0.8"/>
</g>
<defs>
<clipPath id="clip0_865_486">
<rect width="60" height="60" fill="white"/>
</clipPath>
</defs>
</svg>
