<svg width="147" height="31" viewBox="0 0 147 31" fill="none" xmlns="http://www.w3.org/2000/svg">
<g clip-path="url(#clip0_158_472)">
<path d="M146.957 19.9559C146.957 20.4718 146.893 20.9377 146.766 21.3535C146.638 21.7616 146.47 22.1236 146.26 22.4393C146.05 22.7473 145.806 23.0129 145.529 23.2363C145.251 23.4519 144.959 23.6289 144.651 23.7675C144.351 23.9063 144.047 24.0101 143.74 24.0794C143.433 24.1411 143.14 24.1719 142.863 24.1719H137.587V21.1687H142.863C143.253 21.1687 143.545 21.0647 143.74 20.8568C143.935 20.6489 144.033 20.3486 144.033 19.9559V15.9131C144.033 15.4973 143.931 15.1893 143.729 14.9891C143.534 14.7889 143.245 14.6887 142.863 14.6887H137.609C137.212 14.6887 136.912 14.7927 136.71 15.0006C136.507 15.2008 136.406 15.4973 136.406 15.89V28.076H133.481V15.89C133.481 15.3741 133.545 14.9121 133.673 14.5039C133.8 14.0958 133.969 13.7377 134.179 13.4297C134.396 13.114 134.644 12.8483 134.921 12.6327C135.199 12.4094 135.487 12.2284 135.787 12.0898C136.095 11.9512 136.402 11.8511 136.71 11.7895C137.025 11.7202 137.317 11.6855 137.587 11.6855H142.863C143.365 11.6855 143.815 11.751 144.212 11.8819C144.61 12.0128 144.959 12.1861 145.258 12.4017C145.566 12.6173 145.825 12.8676 146.035 13.1525C146.252 13.4374 146.428 13.7377 146.564 14.0535C146.698 14.3615 146.796 14.6733 146.856 14.9891C146.923 15.3048 146.957 15.6051 146.957 15.89V19.9559Z" fill="white"/>
<path d="M131.682 14.6887H125.101C124.704 14.6887 124.404 14.7927 124.201 15.0006C123.999 15.2008 123.898 15.4973 123.898 15.89V24.1719H120.973V15.89C120.973 15.3741 121.037 14.9121 121.164 14.5039C121.292 14.0958 121.46 13.7377 121.671 13.4297C121.888 13.114 122.135 12.8483 122.413 12.6327C122.69 12.4094 122.979 12.2284 123.279 12.0898C123.587 11.9512 123.894 11.8511 124.201 11.7895C124.516 11.7202 124.809 11.6855 125.079 11.6855H131.682V14.6887Z" fill="white"/>
<path d="M119.072 15.8207C119.072 16.2365 119.001 16.687 118.859 17.1721C118.716 17.6496 118.483 18.0962 118.161 18.512C117.846 18.9201 117.43 19.2628 116.913 19.54C116.403 19.8172 115.78 19.9559 115.045 19.9559H109.77V17.1028H115.045C115.443 17.1028 115.75 16.9796 115.968 16.7332C116.185 16.4791 116.294 16.1672 116.294 15.7976C116.294 15.4049 116.17 15.0969 115.923 14.8735C115.683 14.6502 115.39 14.5386 115.045 14.5386H109.77C109.372 14.5386 109.065 14.6656 108.847 14.9198C108.63 15.1662 108.521 15.4742 108.521 15.8438V20.0367C108.521 20.4372 108.641 20.749 108.881 20.9723C109.128 21.1956 109.432 21.3073 109.792 21.3073H115.045V24.1719H109.77C109.365 24.1719 108.926 24.0986 108.454 23.9523C107.989 23.806 107.554 23.5712 107.149 23.2478C106.751 22.9167 106.418 22.4893 106.148 21.9657C105.878 21.4344 105.743 20.7914 105.743 20.0367V15.8207C105.743 15.4049 105.814 14.9583 105.957 14.4808C106.099 13.9957 106.328 13.5491 106.643 13.1409C106.965 12.7251 107.381 12.3786 107.891 12.1014C108.409 11.8242 109.035 11.6855 109.77 11.6855H115.045C115.45 11.6855 115.885 11.7587 116.35 11.905C116.823 12.0513 117.257 12.29 117.655 12.6212C118.06 12.9446 118.397 13.372 118.667 13.9033C118.937 14.4269 119.072 15.0661 119.072 15.8207Z" fill="white"/>
<path d="M103.808 14.5386C103.808 15.2239 103.726 15.8361 103.561 16.3751C103.396 16.9142 103.171 17.3916 102.886 17.8074C102.608 18.2156 102.286 18.5659 101.918 18.8585C101.551 19.1512 101.165 19.3899 100.76 19.5747C100.362 19.7595 99.9573 19.8943 99.5449 19.979C99.1401 20.0637 98.7575 20.106 98.3975 20.106H91.7835V17.1028H98.3975C98.7726 17.072 99.1101 16.995 99.41 16.8718C99.7174 16.7409 99.9798 16.5676 100.197 16.352C100.415 16.1364 100.584 15.8785 100.703 15.5781C100.823 15.2701 100.884 14.9236 100.884 14.5386V13.1756C100.846 12.7983 100.767 12.4518 100.647 12.136C100.527 11.8203 100.362 11.5508 100.152 11.3275C99.9498 11.1042 99.7023 10.9309 99.41 10.8077C99.1174 10.6768 98.7801 10.6113 98.3975 10.6113H91.8059C91.416 10.6113 91.1198 10.7153 90.9173 10.9232C90.715 11.1311 90.6136 11.4314 90.6136 11.8242V24.1719H87.689V11.8242C87.689 11.0541 87.8239 10.3996 88.094 9.86054C88.3715 9.32152 88.7128 8.88643 89.1176 8.55532C89.53 8.22419 89.9762 7.98549 90.4562 7.83917C90.9362 7.68516 91.3786 7.60815 91.7835 7.60815H98.3975C99.0576 7.60815 99.6499 7.69672 100.175 7.87381C100.7 8.04323 101.161 8.27425 101.558 8.56688C101.963 8.85177 102.305 9.18291 102.582 9.56022C102.867 9.93755 103.099 10.3341 103.279 10.75C103.467 11.1581 103.602 11.5739 103.684 11.9974C103.767 12.4132 103.808 12.806 103.808 13.1756V14.5386Z" fill="white"/>
<path d="M84.843 24.1719H81.9183V17.2415C81.9183 16.8487 81.8507 16.4983 81.7158 16.1903C81.5884 15.8746 81.4121 15.6051 81.1871 15.3818C80.9621 15.1585 80.696 14.9891 80.3885 14.8735C80.0886 14.7503 79.7623 14.6887 79.4099 14.6887H74.2918V24.1719H71.3672V13.1756C71.3672 12.9677 71.4048 12.7752 71.4797 12.5981C71.5546 12.4132 71.6598 12.2554 71.7947 12.1245C71.9297 11.9859 72.0871 11.8781 72.2671 11.8011C72.447 11.7241 72.6382 11.6855 72.8407 11.6855H79.4323C79.7998 11.6855 80.186 11.7279 80.5908 11.8126C81.0035 11.8973 81.4083 12.0359 81.8058 12.2284C82.2107 12.4132 82.5933 12.652 82.9532 12.9446C83.3205 13.2295 83.6431 13.5799 83.9206 13.9957C84.2056 14.4038 84.4303 14.8774 84.5955 15.4164C84.7605 15.9555 84.843 16.5638 84.843 17.2415V24.1719Z" fill="white"/>
<path d="M68.6228 22.6587C68.6228 22.8743 68.5852 23.0745 68.5103 23.2594C68.4353 23.4442 68.3302 23.6059 68.1952 23.7445C68.0678 23.8753 67.914 23.9793 67.7341 24.0564C67.5616 24.1334 67.3742 24.1719 67.1717 24.1719H60.5576C60.1977 24.1719 59.8115 24.1296 59.3989 24.0448C58.994 23.9601 58.5927 23.8253 58.1955 23.6404C57.7979 23.448 57.4118 23.2093 57.0367 22.9244C56.6694 22.6318 56.3468 22.2814 56.0694 21.8733C55.7919 21.4575 55.5669 20.98 55.3944 20.441C55.2295 19.902 55.147 19.2936 55.147 18.616V11.6855H58.0716V18.616C58.0716 19.0087 58.1354 19.3629 58.2628 19.6786C58.3978 19.9867 58.5778 20.2523 58.8028 20.4756C59.0278 20.699 59.2901 20.8722 59.5903 20.9954C59.8978 21.1109 60.2277 21.1687 60.5801 21.1687H65.6981V11.6855H68.6228V22.6587Z" fill="white"/>
<path d="M53.2234 19.2975C53.2234 19.8904 53.1485 20.4256 52.9987 20.903C52.8562 21.3727 52.665 21.7886 52.4249 22.1505C52.185 22.5124 51.9038 22.8204 51.5814 23.0745C51.2588 23.3287 50.9251 23.5366 50.58 23.6982C50.2352 23.86 49.8829 23.9793 49.5229 24.0564C49.1703 24.1334 48.8366 24.1719 48.5218 24.1719H37.2394V21.1687H48.5218C49.084 21.1687 49.5191 20.9993 49.8266 20.6604C50.1414 20.3216 50.299 19.8673 50.299 19.2975C50.299 19.0203 50.2577 18.7661 50.1752 18.5351C50.0927 18.3041 49.9727 18.1039 49.8153 17.9345C49.6652 17.7651 49.4778 17.6342 49.2528 17.5418C49.0354 17.4494 48.7917 17.4032 48.5218 17.4032H41.795C41.3226 17.4032 40.8128 17.3185 40.2652 17.149C39.7179 16.9719 39.2079 16.6909 38.7354 16.3058C38.2706 15.9208 37.8806 15.4164 37.5656 14.7927C37.2581 14.169 37.1045 13.4066 37.1045 12.5057C37.1045 11.6047 37.2581 10.8462 37.5656 10.2302C37.8806 9.60643 38.2706 9.10205 38.7354 8.71701C39.2079 8.3243 39.7179 8.04323 40.2652 7.87381C40.8128 7.69672 41.3226 7.60815 41.795 7.60815H51.7499V10.6113H41.795C41.2401 10.6113 40.8053 10.7846 40.4902 11.1311C40.1827 11.4776 40.0291 11.9358 40.0291 12.5057C40.0291 13.0832 40.1827 13.5414 40.4902 13.8802C40.8053 14.2113 41.2401 14.3769 41.795 14.3769H48.5443C48.8591 14.3846 49.1928 14.4308 49.5454 14.5155C49.8977 14.5925 50.2463 14.7157 50.5914 14.8851C50.9438 15.0545 51.2775 15.2701 51.5925 15.5319C51.9075 15.786 52.185 16.0941 52.4249 16.456C52.6723 16.8179 52.8673 17.2337 53.0098 17.7035C53.1523 18.1732 53.2234 18.7045 53.2234 19.2975Z" fill="white"/>
<path d="M20.3101 30.2812C18.8233 30.7479 17.2404 30.9999 15.5982 30.9999C13.956 30.9999 12.373 30.7479 10.8862 30.2812H20.3101Z" fill="#FBB930"/>
<path d="M23.6974 28.7546C23.2663 29.0146 22.8215 29.2546 22.3644 29.473H8.83195C8.37483 29.2546 7.93007 29.0146 7.49902 28.7546H23.6974Z" fill="#FBB930"/>
<path d="M25.808 27.2275C25.5166 27.4779 25.2155 27.7174 24.9056 27.9462H6.29048C5.9807 27.7174 5.6797 27.4779 5.38818 27.2275H25.808Z" fill="#FBB930"/>
<path d="M19.5135 18.397C19.5124 18.8943 19.3985 19.3749 19.1933 19.8165H16.899C16.7745 19.8166 16.6738 19.9167 16.6738 20.0403C16.6739 20.1638 16.7746 20.2638 16.899 20.2639H18.9454C18.2954 21.2637 17.1403 21.9848 15.7555 22.0971C13.602 22.2716 11.7542 20.9054 11.4434 19.0511L19.5135 18.397Z" fill="#FBB930"/>
<path fill-rule="evenodd" clip-rule="evenodd" d="M14.4275 4.39108C14.7187 4.36078 15.0132 4.3415 15.3106 4.33366C15.3071 4.33375 15.3036 4.33382 15.3002 4.33392L15.1621 0H16.0344L15.8962 4.33307C15.891 4.33295 15.8857 4.33286 15.8805 4.33274C16.1827 4.33969 16.4821 4.35846 16.778 4.38864C16.775 4.38833 16.7721 4.388 16.7691 4.3877L17.2017 0.0759373L18.0666 0.188913L17.3605 4.4633C17.6505 4.50815 17.9368 4.56393 18.219 4.63032L19.214 0.415541L20.0566 0.639631L18.7956 4.78227C19.0801 4.86536 19.36 4.9592 19.6346 5.06352C19.6314 5.06228 19.6281 5.06106 19.6249 5.05981L21.1644 1.01289L21.9703 1.34429L20.1763 5.28566C20.4438 5.40358 20.7058 5.53157 20.9619 5.66908L23.0196 1.85793L23.7749 2.29089L21.4791 5.96463C21.7285 6.11611 21.9715 6.27691 22.2076 6.44664L24.7477 2.9361L25.4397 3.46317L22.6815 6.80671C22.9087 6.98895 23.1287 7.17981 23.3408 7.37878L26.3193 4.22899L26.9361 4.84121L23.7638 7.79702C23.7622 7.7954 23.7608 7.79382 23.7591 7.7922C23.9621 8.0035 24.1568 8.22268 24.3428 8.44924L27.7075 5.71433L28.2386 6.40131L24.708 8.91858C24.7063 8.9164 24.7047 8.91431 24.703 8.91215C24.8767 9.14798 25.0414 9.39086 25.1965 9.64022L28.8885 7.36694L29.3248 8.11683L25.4969 10.1531C25.6365 10.407 25.7668 10.6668 25.8866 10.9322L29.8421 9.15839L30.1758 9.95845L26.1165 11.4799C26.1631 11.5994 26.2075 11.7199 26.2501 11.8414C26.2501 11.8441 26.2503 11.8469 26.2505 11.8496C26.4713 12.4875 26.6362 13.1515 26.7381 13.8357H26.7431C26.7376 13.8004 26.7324 13.7652 26.7267 13.73L31.0058 13.0335L31.1197 13.8919L26.8052 14.3184C26.8158 14.4183 26.8253 14.5185 26.8331 14.6192H26.8267C26.8485 14.9014 26.8598 15.1865 26.86 15.4742H26.8674C26.8671 15.3781 26.8655 15.2823 26.8629 15.1869L31.1963 15.0508V15.6732H26.8664C26.8633 15.8693 26.8551 16.0642 26.8421 16.2577H26.8324C26.8005 16.7214 26.7402 17.1774 26.653 17.6239H26.6646C26.6358 17.7723 26.6039 17.9197 26.5691 18.066H30.9994C30.959 18.3075 30.9129 18.547 30.8612 18.7846H26.373C26.4115 18.6598 26.4479 18.5341 26.4821 18.4074H26.4699C26.4207 18.5881 26.367 18.767 26.3089 18.9439C26.2945 19.0019 26.2796 19.0598 26.2642 19.1174C26.208 19.2811 26.1477 19.443 26.0839 19.6032C26.0853 19.5997 26.0868 19.5963 26.0882 19.5929H30.6624C30.5958 19.8349 30.5235 20.0744 30.4455 20.3115H25.7729C25.6401 20.5874 25.4959 20.857 25.3416 21.1199H30.1543C30.0593 21.3624 29.9581 21.602 29.8513 21.8385H24.8814C24.6877 22.1174 24.4813 22.3871 24.2632 22.6468H29.4571C29.3295 22.8901 29.1957 23.1298 29.0558 23.3653H23.605C23.3201 23.6504 23.0199 23.9203 22.7056 24.1737H28.5409C28.374 24.4184 28.2005 24.6579 28.0204 24.8923H21.7084C21.2316 25.1978 20.7299 25.4684 20.2072 25.7006H27.3547C27.1375 25.9472 26.9125 26.1868 26.68 26.4193H17.9982C17.23 26.5837 16.4325 26.6703 15.6147 26.6703C15.5772 26.6703 15.5397 26.6701 15.5022 26.6696V26.6539C15.0362 26.6494 14.577 26.6175 14.1262 26.5585V26.5733C13.8602 26.5383 13.5971 26.4944 13.3373 26.4414V26.4268C12.102 26.175 10.9409 25.7215 9.8896 25.1034L9.87989 25.1128C9.75876 25.0417 9.63913 24.9679 9.52099 24.8923H3.1761C2.99598 24.6579 2.82237 24.4184 2.65569 24.1737H8.52363C8.74269 24.3505 8.96877 24.5189 9.20104 24.6791L9.21014 24.6704C8.97165 24.506 8.73955 24.3334 8.51494 24.1516L8.50659 24.1598C8.30219 23.9945 8.10374 23.8219 7.91165 23.6427L7.91973 23.6347C7.58479 23.3228 7.2691 22.9908 6.97458 22.6406L6.96709 22.6479C6.7974 22.4459 6.63485 22.2377 6.47965 22.0239L6.48671 22.0171C5.71589 20.957 5.1276 19.7575 4.7679 18.4637H4.76237C4.7921 18.5713 4.82335 18.6783 4.85624 18.7846H0.335202C0.283574 18.547 0.237466 18.3075 0.196944 18.066H4.66032C4.63007 17.9383 4.60202 17.8097 4.57623 17.6803H4.58042C4.52398 17.3992 4.47853 17.1142 4.44377 16.8259H4.44037C4.40955 16.5673 4.38771 16.306 4.37502 16.0424H4.37656C4.36739 15.8574 4.36259 15.6713 4.36259 15.484C4.36259 15.2121 4.37292 14.9424 4.39215 14.6754C4.40156 14.5474 4.41319 14.4199 4.4269 14.2931C4.42588 14.3026 4.42477 14.3122 4.42375 14.3217L0.0766602 13.8919L0.19047 13.0335L4.5016 13.7352C4.54936 13.4366 4.60909 13.1419 4.68017 12.8517C4.67755 12.8624 4.67483 12.8731 4.67223 12.8838L0.418772 11.8945L0.644516 11.0581L4.82651 12.3124C4.79232 12.4266 4.76027 12.5416 4.72973 12.6573C4.83776 12.2486 4.96841 11.849 5.12049 11.4599C5.11647 11.4702 5.11238 11.4804 5.10839 11.4907L1.02053 9.95835L1.35438 9.15839L5.33711 10.9445C5.33532 10.9485 5.33357 10.9526 5.33175 10.9566C5.48541 10.6144 5.656 10.2814 5.84228 9.95835C5.80246 10.0273 5.76315 10.0967 5.72482 10.1665L1.87181 8.11683L2.30796 7.36694L6.02357 9.65495C6.01695 9.66561 6.01045 9.67637 6.00388 9.68708C6.17482 9.40918 6.35753 9.1392 6.55154 8.87798C6.53772 8.8966 6.52377 8.91515 6.51006 8.93387L2.95786 6.40131L3.48891 5.7144L6.87322 8.46532C6.86728 8.47258 6.86149 8.47996 6.85559 8.48721C7.04865 8.24987 7.25121 8.02048 7.46287 7.79972C7.45857 7.8042 7.45422 7.80867 7.44994 7.81317L4.26028 4.84121L4.87711 4.22899L7.87102 7.39517C7.86752 7.39848 7.86402 7.40177 7.86053 7.40508C8.08131 7.1966 8.31074 6.99708 8.548 6.80678C8.54134 6.81211 8.5346 6.81735 8.52798 6.82268L5.75668 3.46317L6.44874 2.9361L8.99999 6.46218C8.9834 6.47419 8.96695 6.4864 8.95041 6.49847C9.20617 6.31158 9.4702 6.13525 9.7418 5.96997C9.73667 5.97307 9.73152 5.97612 9.72639 5.97927L7.42149 2.29089L8.17691 1.85793L10.2418 5.6827C10.2019 5.70421 10.1623 5.72598 10.1228 5.74799C10.4184 5.58357 10.7223 5.43214 11.0337 5.29421C11.0309 5.29543 11.0282 5.29663 11.0255 5.29785L9.22616 1.34429L10.0321 1.01298L11.5757 5.0709C11.9066 4.94452 12.245 4.83325 12.5901 4.73788C12.5277 4.75509 12.4654 4.77271 12.4035 4.79098L11.1399 0.639631L11.9825 0.415541L12.979 4.63776C13.2609 4.5706 13.5469 4.51395 13.8366 4.4683L13.1299 0.188998L13.9947 0.0759373L14.4275 4.39108ZM5.05259 14.9377C5.04326 15.1187 5.03862 15.3008 5.03862 15.484C5.03872 21.283 9.77233 25.9836 15.6113 25.9836C15.6495 25.9836 15.6877 25.9825 15.7259 25.9822L15.9038 22.6454C18.375 22.3951 20.2556 20.3878 20.0654 18.072C20.0536 17.9277 19.9331 17.8178 19.7905 17.8148L19.7617 17.8158L16.1461 18.1088L16.2293 16.5546H14.7861L14.9111 15.5545C14.0705 16.9626 12.3657 18.1149 9.17412 18.5042C7.89997 18.6596 6.87121 18.0639 6.16121 17.2034C5.63487 16.5653 5.26264 15.7626 5.05259 14.9377ZM13.2327 11.0128C12.4915 11.0085 11.4437 11.1719 10.087 11.3847C8.87079 11.5754 7.79395 11.9353 7.04555 12.3656C6.67167 12.5806 6.37651 12.8152 6.18763 13.0572C5.99949 13.2985 5.91327 13.5528 5.9682 13.8037C6.0217 14.5686 6.34409 15.3517 6.73777 15.9769C6.93523 16.2905 7.15152 16.5662 7.36219 16.781C7.57199 16.9949 7.78003 17.1525 7.96123 17.2253C8.1408 17.2975 8.41426 17.3436 8.7487 17.3546C9.08436 17.3656 9.48587 17.3414 9.92351 17.2703C10.7988 17.1282 11.8231 16.798 12.7615 16.1838C14.2686 15.1972 15.0541 13.2931 14.5828 11.6799C14.5119 11.4378 14.36 11.2697 14.1306 11.1636C13.9041 11.059 13.6033 11.0149 13.2327 11.0128ZM19.8891 10.4624C18.7115 10.4624 17.7895 10.4839 17.097 10.5711C16.9816 10.5856 16.8726 10.602 16.7698 10.6204C16.667 10.6388 16.5704 10.6591 16.48 10.6818C16.1179 10.7725 15.847 10.9008 15.6667 11.0841C15.5984 11.1535 15.5438 11.23 15.5022 11.3141C15.4884 11.342 15.4761 11.3709 15.4652 11.4005C15.4212 11.5193 15.4 11.6516 15.4 11.7983V11.8027L15.4007 11.8075C15.4311 11.9927 15.4907 12.2268 15.5849 12.4869C15.5983 12.5241 15.6124 12.5619 15.6273 12.6C15.6421 12.638 15.6576 12.6766 15.6739 12.7154C15.8037 13.0257 15.9801 13.3612 16.2113 13.6882C16.3641 13.9044 16.5411 14.1166 16.744 14.3158C17.1225 14.6873 17.592 15.013 18.1682 15.2291C18.8247 15.4755 19.5177 15.6402 20.1908 15.7418C20.3994 15.7733 20.6062 15.7985 20.8094 15.8184C21.1159 15.8484 21.4142 15.8662 21.6985 15.873C22.2389 15.8859 22.7301 15.8602 23.132 15.8086C23.532 15.7572 23.8489 15.6794 24.038 15.5856C24.2344 15.4881 24.4093 15.2735 24.5584 14.9961C24.7082 14.7168 24.8368 14.365 24.9375 13.9818C25.1341 13.2315 25.2253 12.3506 25.1558 11.634C25.1544 11.6185 25.1535 11.6029 25.1518 11.5874L25.1509 11.5831C25.1346 11.4979 25.1015 11.4192 25.0528 11.3464C25.0448 11.3344 25.0362 11.3224 25.0275 11.3107C24.9826 11.2518 24.9273 11.197 24.8621 11.1461C24.8358 11.1257 24.8079 11.106 24.7786 11.0868C24.7496 11.0676 24.7189 11.049 24.6865 11.031C24.5579 10.9593 24.4038 10.8959 24.2263 10.84C24.1375 10.8121 24.0427 10.7861 23.9423 10.7618C23.8418 10.7375 23.7357 10.7148 23.624 10.6939C23.4562 10.6625 23.2752 10.635 23.0816 10.6106C23.0171 10.6025 22.9512 10.5947 22.8839 10.5873C22.0763 10.4987 21.0685 10.4624 19.8891 10.4624ZM15.6113 4.98379C10.9603 4.98381 7.01057 7.96658 5.59592 12.1111C5.61651 12.0907 5.63707 12.0701 5.65846 12.0501C6.20285 11.5421 6.98781 11.1864 7.88473 10.9119C9.68014 10.3624 12.2272 10.0541 15.0524 9.70965C15.2537 9.6851 15.4537 9.66169 15.6524 9.63947L16.2113 5.92624C19.5759 6.06313 22.5041 7.31097 24.4111 9.80715C24.4523 9.82045 24.4929 9.83447 24.5331 9.84842C22.6562 6.9239 19.362 4.98381 15.6113 4.98379Z" fill="#FBB930"/>
<path d="M11.0222 25.7007C11.7235 26.0123 12.4627 26.2547 13.2312 26.4193H4.51648C4.2841 26.1868 4.05908 25.9473 3.8418 25.7007H11.0222Z" fill="#FBB930"/>
<path d="M6.96606 22.6467C7.17505 22.8956 7.39472 23.1354 7.62439 23.3652H2.14057C2.00056 23.1297 1.86686 22.8901 1.73926 22.6467H6.96606Z" fill="#FBB930"/>
<path d="M5.88759 21.1199C6.03194 21.3655 6.18539 21.6052 6.34761 21.8385H1.345C1.23813 21.602 1.1371 21.3624 1.04199 21.1199H5.88759Z" fill="#FBB930"/>
<path d="M5.14119 19.593C5.23796 19.8369 5.34323 20.0765 5.45646 20.3116H0.750979C0.673062 20.0746 0.600736 19.835 0.53418 19.593H5.14119Z" fill="#FBB930"/>
<path d="M4.40945 16.5391C4.43193 16.7809 4.46225 17.0205 4.50002 17.2576H0.0827234C0.0556716 17.0197 0.0341406 16.7801 0.0180664 16.5391H4.40945Z" fill="#FBB930"/>
<path d="M31.1777 16.5391C31.1617 16.7801 31.1402 17.0197 31.1132 17.2576H26.7285C26.7663 17.0205 26.7966 16.7809 26.819 16.5391H31.1777Z" fill="#FBB930"/>
<path d="M4.36592 15.1879C4.36304 15.2915 4.36157 15.3956 4.36157 15.5C4.36157 15.5578 4.36214 15.6155 4.36302 15.6732H0V15.0508L4.36592 15.1879Z" fill="#FBB930"/>
<path d="M30.7778 11.8945L26.5552 12.8766C26.5084 12.6836 26.4566 12.4924 26.3999 12.3035L30.5521 11.0581L30.7778 11.8945Z" fill="#FBB930"/>
</g>
<defs>
<clipPath id="clip0_158_472">
<rect width="147" height="31" fill="white"/>
</clipPath>
</defs>
</svg>
