<svg width="60" height="60" viewBox="0 0 60 60" fill="none" xmlns="http://www.w3.org/2000/svg">
<g clip-path="url(#clip0_3991_415)">
<path d="M30 59.5C46.2924 59.5 59.5 46.2924 59.5 30C59.5 13.7076 46.2924 0.5 30 0.5C13.7076 0.5 0.5 13.7076 0.5 30C0.5 46.2924 13.7076 59.5 30 59.5Z" fill="white" stroke="#E7EBEE"/>
<path d="M17.1738 37.3428C17.4031 37.1263 17.7184 37 18.0528 37H48.3771C48.9312 37 49.2083 37.6314 48.8165 38.0013L42.8262 43.6572C42.5969 43.8737 42.2816 44 41.9472 44H11.6229C11.0688 44 10.7917 43.3686 11.1835 42.9987L17.1738 37.3428Z" fill="url(#paint0_linear_3991_415)"/>
<path d="M17.1738 15.3428C17.4126 15.1263 17.7279 15 18.0528 15H48.3771C48.9312 15 49.2083 15.6314 48.8165 16.0013L42.8262 21.6572C42.5969 21.8737 42.2816 22 41.9472 22H11.6229C11.0688 22 10.7917 21.3686 11.1835 20.9987L17.1738 15.3428Z" fill="url(#paint1_linear_3991_415)"/>
<path d="M42.8262 25.4407C42.5969 25.1624 42.2816 25 41.9472 25H11.6229C11.0688 25 10.7917 25.8119 11.1835 26.2874L17.1738 33.5593C17.4031 33.8376 17.7184 34 18.0528 34H48.3771C48.9312 34 49.2083 33.1881 48.8165 32.7126L42.8262 25.4407Z" fill="url(#paint2_linear_3991_415)"/>
</g>
<defs>
<linearGradient id="paint0_linear_3991_415" x1="45.4802" y1="12.504" x2="26.3259" y2="51.3615" gradientUnits="userSpaceOnUse">
<stop stop-color="#00FFA3"/>
<stop offset="1" stop-color="#DC1FFF"/>
</linearGradient>
<linearGradient id="paint1_linear_3991_415" x1="36.3036" y1="7.09781" x2="17.1493" y2="45.9553" gradientUnits="userSpaceOnUse">
<stop stop-color="#00FFA3"/>
<stop offset="1" stop-color="#DC1FFF"/>
</linearGradient>
<linearGradient id="paint2_linear_3991_415" x1="40.8627" y1="4.24108" x2="12.7841" y2="48.5447" gradientUnits="userSpaceOnUse">
<stop stop-color="#00FFA3"/>
<stop offset="1" stop-color="#DC1FFF"/>
</linearGradient>
<clipPath id="clip0_3991_415">
<rect width="60" height="60" fill="white"/>
</clipPath>
</defs>
</svg>
