<svg width="60" height="60" viewBox="0 0 60 60" fill="none" xmlns="http://www.w3.org/2000/svg">
<path fill-rule="evenodd" clip-rule="evenodd" d="M30 0C46.5685 0 60 13.4315 60 30C60 46.5685 46.5685 60 30 60C13.4315 60 0 46.5685 0 30C0 13.4315 13.4315 0 30 0ZM11.25 11.25L28.486 56.25L52.5 25.8901L43.9982 17.5035L11.25 11.25ZM48.1251 27.6798L30.7232 49.6805L32.9536 30.5301L48.1251 27.6798ZM15.7235 16.5038L30.7749 29.4585L28.4216 49.6592L15.7235 16.5038ZM43.4711 20.2585L48.4804 25.2003L34.7799 27.7751L43.4711 20.2585ZM17.3604 14.8295L40.9654 19.3378L31.8028 27.2595L17.3604 14.8295Z" fill="#E50E19"/>
</svg>
